100.ufo
<glyph name="parenright" format="2">
  <advance width="240"/>
  <unicode hex="0029"/>
  <outline>
    <contour>
      <point x="35" y="-200" type="curve"/>
      <point x="30" y="-200" type="line"/>
      <point x="105" y="-40"/>
      <point x="140" y="120"/>
      <point x="140" y="290" type="curve" smooth="yes"/>
      <point x="140" y="460"/>
      <point x="105" y="620"/>
      <point x="30" y="780" type="curve"/>
      <point x="35" y="780" type="line"/>
      <point x="115" y="630"/>
      <point x="150" y="460"/>
      <point x="150" y="290" type="curve" smooth="yes"/>
      <point x="150" y="120"/>
      <point x="115" y="-50"/>
    </contour>
  </outline>
</glyph>
<glyph name="plus" format="2">
  <advance width="550"/>
  <unicode hex="002B"/>
  <outline>
    <contour>
      <point x="65" y="250" type="line"/>
      <point x="65" y="260" type="line"/>
      <point x="475" y="260" type="line"/>
      <point x="475" y="250" type="line"/>
    </contour>
    <contour>
      <point x="265" y="480" type="line"/>
      <point x="275" y="480" type="line"/>
      <point x="275" y="30" type="line"/>
      <point x="265" y="30" type="line"/>
    </contour>
  </outline>
</glyph>
<glyph name="slash" format="2">
  <advance width="475"/>
  <unicode hex="002F"/>
  <outline>
    <contour>
      <point x="448" y="700" type="line"/>
      <point x="460" y="700" type="line"/>
      <point x="27" y="-150" type="line"/>
      <point x="15" y="-150" type="line"/>
    </contour>
  </outline>
</glyph>
<glyph name="three" format="2">
  <advance width="551"/>
  <unicode hex="0033"/>
  <outline>
    <contour>
      <point x="248" y="362" type="curve"/>
      <point x="248" y="370" type="line"/>
      <point x="338" y="370"/>
      <point x="456" y="429"/>
      <point x="456" y="533" type="curve" smooth="yes"/>
      <point x="456" y="616"/>
      <point x="394" y="700"/>
      <point x="282" y="700" type="curve" smooth="yes"/>
      <point x="173" y="700"/>
      <point x="105" y="627"/>
      <point x="105" y="526" type="curve"/>
      <point x="95" y="526" type="line"/>
      <point x="95" y="635"/>
      <point x="167" y="710"/>
      <point x="282" y="710" type="curve" smooth="yes"/>
      <point x="402" y="710"/>
      <point x="466" y="623"/>
      <point x="466" y="534" type="curve" smooth="yes"/>
      <point x="466" y="425"/>
      <point x="353" y="362"/>
    </contour>
    <contour>
      <point x="278" y="-10" type="curve" smooth="yes"/>
      <point x="143" y="-10"/>
      <point x="65" y="76"/>
      <point x="65" y="185" type="curve"/>
      <point x="75" y="185" type="line"/>
      <point x="75" y="79"/>
      <point x="148" y="0"/>
      <point x="278" y="0" type="curve" smooth="yes"/>
      <point x="398" y="0"/>
      <point x="476" y="74"/>
      <point x="476" y="175" type="curve" smooth="yes"/>
      <point x="476" y="300"/>
      <point x="338" y="360"/>
      <point x="248" y="360" type="curve"/>
      <point x="248" y="368" type="line"/>
      <point x="353" y="368"/>
      <point x="486" y="304"/>
      <point x="486" y="175" type="curve" smooth="yes"/>
      <point x="486" y="66"/>
      <point x="403" y="-10"/>
    </contour>
  </outline>
</glyph>
<glyph name="six" format="2">
  <advance width="536"/>
  <unicode hex="0036"/>
  <outline>
    <contour>
      <point x="60" y="220" type="curve" smooth="yes"/>
      <point x="60" y="94"/>
      <point x="143" y="0"/>
      <point x="268" y="0" type="curve" smooth="yes"/>
      <point x="393" y="0"/>
      <point x="476" y="94"/>
      <point x="476" y="220" type="curve" smooth="yes"/>
      <point x="476" y="336"/>
      <point x="384" y="427"/>
      <point x="279" y="427" type="curve" smooth="yes"/>
      <point x="139" y="427"/>
      <point x="60" y="326"/>
    </contour>
    <contour>
      <point x="330" y="700" type="line"/>
      <point x="342" y="700" type="line"/>
      <point x="100" y="355" type="line"/>
      <point x="100" y="355" type="line"/>
      <point x="142" y="407"/>
      <point x="204" y="437"/>
      <point x="279" y="437" type="curve" smooth="yes"/>
      <point x="393" y="437"/>
      <point x="486" y="339"/>
      <point x="486" y="220" type="curve" smooth="yes"/>
      <point x="486" y="86"/>
      <point x="403" y="-10"/>
      <point x="268" y="-10" type="curve" smooth="yes"/>
      <point x="133" y="-10"/>
      <point x="50" y="86"/>
      <point x="50" y="220" type="curve" smooth="yes"/>
      <point x="50" y="277"/>
      <point x="79" y="342"/>
      <point x="106" y="379" type="curve" smooth="yes"/>
    </contour>
  </outline>
</glyph>
<glyph name="seven" format="2">
  <advance width="515"/>
  <unicode hex="0037"/>
  <outline>
    <contour>
      <point x="35" y="690" type="line"/>
      <point x="35" y="700" type="line"/>
      <point x="505" y="700" type="line"/>
      <point x="135" y="0" type="line"/>
      <point x="124" y="0" type="line"/>
      <point x="489" y="690" type="line"/>
    </contour>
  </outline>
</glyph>
<glyph name="at" format="2">
  <advance width="770"/>
  <unicode hex="0040"/>
  <outline>
    <contour>
      <point x="216" y="320" type="curve" smooth="yes"/>
      <point x="216" y="234"/>
      <point x="268" y="174"/>
      <point x="338" y="174" type="curve" smooth="yes"/>
      <point x="423" y="174"/>
      <point x="490" y="264"/>
      <point x="490" y="370" type="curve" smooth="yes"/>
      <point x="490" y="446"/>
      <point x="448" y="517"/>
      <point x="378" y="517" type="curve" smooth="yes"/>
      <point x="298" y="517"/>
      <point x="216" y="451"/>
    </contour>
    <contour>
      <point x="205" y="320" type="curve" smooth="yes"/>
      <point x="205" y="459"/>
      <point x="293" y="528"/>
      <point x="378" y="528" type="curve" smooth="yes"/>
      <point x="453" y="528"/>
      <point x="500" y="456"/>
      <point x="500" y="367" type="curve" smooth="yes"/>
      <point x="500" y="258"/>
      <point x="425" y="163"/>
      <point x="340" y="163" type="curve" smooth="yes"/>
      <point x="265" y="163"/>
      <point x="205" y="221"/>
    </contour>
    <contour>
      <point x="35" y="320" type="curve" smooth="yes"/>
      <point x="35" y="539"/>
      <point x="191" y="708"/>
      <point x="415" y="708" type="curve" smooth="yes"/>
      <point x="619" y="708"/>
      <point x="735" y="549"/>
      <point x="735" y="390" type="curve" smooth="yes"/>
      <point x="735" y="229"/>
      <point x="631" y="152"/>
      <point x="556" y="152" type="curve" smooth="yes"/>
      <point x="495" y="152"/>
      <point x="468" y="204"/>
      <point x="482" y="290" type="curve"/>
      <point x="480" y="290" type="line"/>
      <point x="520" y="520" type="line"/>
      <point x="532" y="520" type="line"/>
      <point x="491" y="289" type="line" smooth="yes"/>
      <point x="490" y="282"/>
      <point x="489" y="262"/>
      <point x="489" y="254" type="curve" smooth="yes"/>
      <point x="489" y="220"/>
      <point x="497" y="163"/>
      <point x="556" y="163" type="curve" smooth="yes"/>
      <point x="629" y="163"/>
      <point x="724" y="244"/>
      <point x="724" y="390" type="curve" smooth="yes"/>
      <point x="724" y="543"/>
      <point x="613" y="697"/>
      <point x="415" y="697" type="curve" smooth="yes"/>
      <point x="196" y="697"/>
      <point x="46" y="536"/>
      <point x="46" y="320" type="curve" smooth="yes"/>
      <point x="46" y="127"/>
      <point x="159" y="3"/>
      <point x="355" y="3" type="curve" smooth="yes"/>
      <point x="464" y="3"/>
      <point x="542" y="32"/>
      <point x="597" y="61" type="curve"/>
      <point x="603" y="51" type="line"/>
      <point x="543" y="22"/>
      <point x="469" y="-8"/>
      <point x="355" y="-8" type="curve" smooth="yes"/>
      <point x="151" y="-8"/>
      <point x="35" y="121"/>
    </contour>
  </outline>
</glyph>
<glyph name="E" format="2">
  <advance width="510"/>
  <unicode hex="0045"/>
  <outline>
    <contour>
      <point x="92" y="0" type="line"/>
      <point x="92" y="10" type="line"/>
      <point x="430" y="10" type="line"/>
      <point x="430" y="0" type="line"/>
    </contour>
    <contour>
      <point x="92" y="690" type="line"/>
      <point x="92" y="700" type="line"/>
      <point x="430" y="700" type="line"/>
      <point x="430" y="690" type="line"/>
    </contour>
    <contour>
      <point x="92" y="384" type="line"/>
      <point x="92" y="394" type="line"/>
      <point x="410" y="394" type="line"/>
      <point x="410" y="384" type="line"/>
    </contour>
    <contour>
      <point x="90" y="700" type="line"/>
      <point x="101" y="700" type="line"/>
      <point x="101" y="0" type="line"/>
      <point x="90" y="0" type="line"/>
    </contour>
  </outline>
</glyph>
<glyph name="J" format="2">
  <advance width="197"/>
  <unicode hex="004A"/>
  <outline>
    <contour>
      <point x="-127" y="-158" type="line"/>
      <point x="-103" y="-182"/>
      <point x="-63" y="-209"/>
      <point x="-17" y="-209" type="curve" smooth="yes"/>
      <point x="72" y="-209"/>
      <point x="96" y="-166"/>
      <point x="96" y="-50" type="curve" smooth="yes"/>
      <point x="96" y="700" type="line"/>
      <point x="107" y="700" type="line"/>
      <point x="107" y="-60" type="line" smooth="yes"/>
      <point x="107" y="-169"/>
      <point x="78" y="-220"/>
      <point x="-16" y="-220" type="curve" smooth="yes"/>
      <point x="-69" y="-220"/>
      <point x="-119" y="-185"/>
      <point x="-134" y="-165" type="curve"/>
    </contour>
  </outline>
</glyph>
<glyph name="M" format="2">
  <advance width="830"/>
  <unicode hex="004D"/>
  <outline>
    <contour>
      <point x="142" y="675" type="line"/>
      <point x="71" y="0" type="line"/>
      <point x="60" y="0" type="line"/>
      <point x="135" y="715" type="line"/>
      <point x="415" y="131" type="line"/>
      <point x="695" y="715" type="line"/>
      <point x="770" y="0" type="line"/>
      <point x="759" y="0" type="line"/>
      <point x="688" y="675" type="line"/>
      <point x="415" y="105" type="line"/>
    </contour>
  </outline>
</glyph>
<glyph name="S" format="2">
  <advance width="488"/>
  <unicode hex="0053"/>
  <outline>
    <contour>
      <point x="64" y="188" type="line"/>
      <point x="75" y="94"/>
      <point x="129" y="3"/>
      <point x="257" y="3" type="curve" smooth="yes"/>
      <point x="369" y="3"/>
      <point x="432" y="74"/>
      <point x="432" y="170" type="curve" smooth="yes"/>
      <point x="432" y="281"/>
      <point x="347" y="328"/>
      <point x="267" y="359" type="curve" smooth="yes"/>
      <point x="170" y="397"/>
      <point x="80" y="446"/>
      <point x="80" y="554" type="curve" smooth="yes"/>
      <point x="80" y="650"/>
      <point x="150" y="708"/>
      <point x="246" y="708" type="curve" smooth="yes"/>
      <point x="353" y="708"/>
      <point x="412" y="636"/>
      <point x="430" y="578" type="curve"/>
      <point x="419" y="574" type="line"/>
      <point x="400" y="629"/>
      <point x="350" y="696"/>
      <point x="246" y="696" type="curve" smooth="yes"/>
      <point x="155" y="696"/>
      <point x="91" y="644"/>
      <point x="91" y="554" type="curve" smooth="yes"/>
      <point x="91" y="451"/>
      <point x="175" y="406"/>
      <point x="273" y="368" type="curve" smooth="yes"/>
      <point x="356" y="336"/>
      <point x="443" y="286"/>
      <point x="443" y="170" type="curve" smooth="yes"/>
      <point x="443" y="69"/>
      <point x="376" y="-8"/>
      <point x="257" y="-8" type="curve" smooth="yes"/>
      <point x="126" y="-8"/>
      <point x="68" y="81"/>
      <point x="53" y="185" type="curve"/>
    </contour>
  </outline>
</glyph>
<glyph name="asciicircum" format="2">
  <advance width="510"/>
  <unicode hex="005E"/>
  <outline>
    <contour>
      <point x="255" y="693" type="line"/>
      <point x="80" y="460" type="line"/>
      <point x="65" y="460" type="line"/>
      <point x="255" y="710" type="line"/>
      <point x="255" y="710" type="line"/>
      <point x="445" y="460" type="line"/>
      <point x="430" y="460" type="line"/>
    </contour>
  </outline>
</glyph>
<glyph name="underscore" format="2">
  <advance width="500"/>
  <unicode hex="005F"/>
  <outline>
    <contour>
      <point x="0" y="-109" type="line"/>
      <point x="0" y="-98" type="line"/>
      <point x="500" y="-98" type="line"/>
      <point x="500" y="-109" type="line"/>
    </contour>
  </outline>
</glyph>
<glyph name="e" format="2">
  <advance width="502"/>
  <unicode hex="0065"/>
  <outline>
    <contour>
      <point x="250" y="-10" type="curve" smooth="yes"/>
      <point x="134" y="-10"/>
      <point x="45" y="94"/>
      <point x="45" y="232" type="curve" smooth="yes"/>
      <point x="45" y="368"/>
      <point x="135" y="470"/>
      <point x="255" y="470" type="curve" smooth="yes"/>
      <point x="366" y="470"/>
      <point x="457" y="372"/>
      <point x="457" y="254" type="curve" smooth="yes"/>
      <point x="457" y="248"/>
      <point x="457" y="238"/>
      <point x="455" y="228" type="curve"/>
      <point x="52" y="228" type="line"/>
      <point x="52" y="238" type="line"/>
      <point x="450" y="238" type="line"/>
      <point x="443" y="229" type="line"/>
      <point x="445" y="235"/>
      <point x="447" y="243"/>
      <point x="447" y="255" type="curve" smooth="yes"/>
      <point x="447" y="368"/>
      <point x="361" y="460"/>
      <point x="255" y="460" type="curve" smooth="yes"/>
      <point x="141" y="460"/>
      <point x="55" y="362"/>
      <point x="55" y="232" type="curve" smooth="yes"/>
      <point x="55" y="101"/>
      <point x="140" y="0"/>
      <point x="250" y="0" type="curve" smooth="yes"/>
      <point x="332" y="0"/>
      <point x="387" y="33"/>
      <point x="441" y="113" type="curve"/>
      <point x="449" y="107" type="line"/>
      <point x="392" y="24"/>
      <point x="334" y="-10"/>
    </contour>
  </outline>
</glyph>
<glyph name="i" format="2">
  <advance width="190"/>
  <unicode hex="0069"/>
  <outline>
    <contour>
      <point x="85" y="695" type="curve" smooth="yes"/>
      <point x="85" y="701"/>
      <point x="88" y="705"/>
      <point x="95" y="705" type="curve" smooth="yes"/>
      <point x="102" y="705"/>
      <point x="105" y="701"/>
      <point x="105" y="695" type="curve" smooth="yes"/>
      <point x="105" y="689"/>
      <point x="102" y="685"/>
      <point x="95" y="685" type="curve" smooth="yes"/>
      <point x="88" y="685"/>
      <point x="85" y="689"/>
    </contour>
    <contour>
      <point x="90" y="460" type="line"/>
      <point x="100" y="460" type="line"/>
      <point x="100" y="0" type="line"/>
      <point x="90" y="0" type="line"/>
    </contour>
  </outline>
</glyph>
<glyph name="j" format="2">
  <advance width="180"/>
  <unicode hex="006A"/>
  <outline>
    <contour>
      <point x="75" y="695" type="curve" smooth="yes"/>
      <point x="75" y="701"/>
      <point x="78" y="705"/>
      <point x="85" y="705" type="curve" smooth="yes"/>
      <point x="92" y="705"/>
      <point x="95" y="701"/>
      <point x="95" y="695" type="curve" smooth="yes"/>
      <point x="95" y="689"/>
      <point x="92" y="685"/>
      <point x="85" y="685" type="curve" smooth="yes"/>
      <point x="78" y="685"/>
      <point x="75" y="689"/>
    </contour>
    <contour>
      <point x="-96" y="-165" type="line"/>
      <point x="-80" y="-185"/>
      <point x="-55" y="-210"/>
      <point x="-18" y="-210" type="curve" smooth="yes"/>
      <point x="62" y="-210"/>
      <point x="80" y="-138"/>
      <point x="80" y="-82" type="curve" smooth="yes"/>
      <point x="80" y="460" type="line"/>
      <point x="90" y="460" type="line"/>
      <point x="90" y="-82" type="line" smooth="yes"/>
      <point x="90" y="-151"/>
      <point x="66" y="-220"/>
      <point x="-18" y="-220" type="curve" smooth="yes"/>
      <point x="-61" y="-220"/>
      <point x="-88" y="-192"/>
      <point x="-103" y="-172" type="curve"/>
    </contour>
  </outline>
</glyph>
<glyph name="u" format="2">
  <advance width="475"/>
  <unicode hex="0075"/>
  <outline>
    <contour>
      <point x="95" y="150" type="line" smooth="yes"/>
      <point x="95" y="59"/>
      <point x="128" y="1"/>
      <point x="218" y="1" type="curve" smooth="yes"/>
      <point x="309" y="1"/>
      <point x="380" y="85"/>
      <point x="380" y="180" type="curve" smooth="yes"/>
      <point x="380" y="460" type="line"/>
      <point x="390" y="460" type="line"/>
      <point x="390" y="0" type="line"/>
      <point x="380" y="0" type="line"/>
      <point x="380" y="132" type="line"/>
      <point x="362" y="48"/>
      <point x="298" y="-10"/>
      <point x="218" y="-10" type="curve" smooth="yes"/>
      <point x="123" y="-10"/>
      <point x="85" y="51"/>
      <point x="85" y="150" type="curve" smooth="yes"/>
      <point x="85" y="460" type="line"/>
      <point x="95" y="460" type="line"/>
    </contour>
  </outline>
</glyph>
<glyph name="y" format="2">
  <advance width="425"/>
  <unicode hex="0079"/>
  <outline>
    <contour>
      <point x="415" y="460" type="line"/>
      <point x="115" y="-220" type="line"/>
      <point x="104" y="-220" type="line"/>
      <point x="210" y="20" type="line"/>
      <point x="10" y="460" type="line"/>
      <point x="22" y="460" type="line"/>
      <point x="221" y="20" type="line"/>
      <point x="210" y="20" type="line"/>
      <point x="404" y="460" type="line"/>
    </contour>
  </outline>
</glyph>
<glyph name="braceleft" format="2">
  <advance width="281"/>
  <unicode hex="007B"/>
  <outline>
    <contour>
      <point x="148" y="640" type="curve" smooth="yes"/>
      <point x="148" y="430" type="line" smooth="yes"/>
      <point x="148" y="341"/>
      <point x="109" y="288"/>
      <point x="80" y="288" type="curve"/>
      <point x="80" y="292" type="line"/>
      <point x="109" y="292"/>
      <point x="148" y="239"/>
      <point x="148" y="150" type="curve" smooth="yes"/>
      <point x="148" y="-60" type="line" smooth="yes"/>
      <point x="148" y="-156"/>
      <point x="166" y="-190"/>
      <point x="231" y="-190" type="curve" smooth="yes"/>
      <point x="251" y="-190" type="line"/>
      <point x="251" y="-200" type="line"/>
      <point x="231" y="-200" type="line" smooth="yes"/>
      <point x="157" y="-200"/>
      <point x="138" y="-159"/>
      <point x="138" y="-60" type="curve" smooth="yes"/>
      <point x="138" y="150" type="line" smooth="yes"/>
      <point x="138" y="226"/>
      <point x="110" y="275"/>
      <point x="80" y="285" type="curve"/>
      <point x="80" y="295" type="line"/>
      <point x="110" y="305"/>
      <point x="138" y="354"/>
      <point x="138" y="430" type="curve" smooth="yes"/>
      <point x="138" y="640" type="line" smooth="yes"/>
      <point x="138" y="739"/>
      <point x="157" y="780"/>
      <point x="231" y="780" type="curve" smooth="yes"/>
      <point x="251" y="780" type="line"/>
      <point x="251" y="770" type="line"/>
      <point x="231" y="770" type="line" smooth="yes"/>
      <point x="166" y="770"/>
      <point x="148" y="736"/>
    </contour>
  </outline>
</glyph>
<glyph name="cent" format="2">
  <advance width="580"/>
  <unicode hex="00A2"/>
  <outline>
    <contour>
      <point x="316" y="-4" type="line"/>
      <point x="320" y="-4" type="line"/>
      <point x="325" y="-112" type="line"/>
      <point x="311" y="-112" type="line"/>
    </contour>
    <contour>
      <point x="96" y="230" type="curve" smooth="yes"/>
      <point x="96" y="99"/>
      <point x="192" y="0"/>
      <point x="319" y="0" type="curve" smooth="yes"/>
      <point x="393" y="0"/>
      <point x="453" y="36"/>
      <point x="474" y="61" type="curve"/>
      <point x="474" y="48" type="line"/>
      <point x="452" y="23"/>
      <point x="392" y="-10"/>
      <point x="319" y="-10" type="curve" smooth="yes"/>
      <point x="187" y="-10"/>
      <point x="86" y="91"/>
      <point x="86" y="230" type="curve" smooth="yes"/>
      <point x="86" y="369"/>
      <point x="187" y="470"/>
      <point x="319" y="470" type="curve" smooth="yes"/>
      <point x="392" y="470"/>
      <point x="453" y="436"/>
      <point x="474" y="412" type="curve"/>
      <point x="474" y="399" type="line"/>
      <point x="453" y="424"/>
      <point x="393" y="460"/>
      <point x="319" y="460" type="curve" smooth="yes"/>
      <point x="192" y="460"/>
      <point x="96" y="361"/>
    </contour>
    <contour>
      <point x="311" y="578" type="line"/>
      <point x="325" y="578" type="line"/>
      <point x="320" y="463" type="line"/>
      <point x="316" y="463" type="line"/>
    </contour>
  </outline>
</glyph>
<glyph name="copyright" format="2">
  <advance width="800"/>
  <unicode hex="00A9"/>
  <outline>
    <contour>
      <point x="198" y="350" type="curve" smooth="yes"/>
      <point x="198" y="230"/>
      <point x="277" y="142"/>
      <point x="389" y="142" type="curve" smooth="yes"/>
      <point x="448" y="142"/>
      <point x="489" y="159"/>
      <point x="524" y="193" type="curve"/>
      <point x="524" y="183" type="line"/>
      <point x="489" y="152"/>
      <point x="450" y="135"/>
      <point x="389" y="135" type="curve" smooth="yes"/>
      <point x="273" y="135"/>
      <point x="191" y="225"/>
      <point x="191" y="350" type="curve" smooth="yes"/>
      <point x="191" y="475"/>
      <point x="273" y="565"/>
      <point x="389" y="565" type="curve" smooth="yes"/>
      <point x="450" y="565"/>
      <point x="489" y="548"/>
      <point x="524" y="517" type="curve"/>
      <point x="524" y="508" type="line"/>
      <point x="490" y="542"/>
      <point x="445" y="558"/>
      <point x="389" y="558" type="curve" smooth="yes"/>
      <point x="277" y="558"/>
      <point x="198" y="472"/>
    </contour>
    <contour>
      <point x="50" y="350" type="curve" smooth="yes"/>
      <point x="50" y="147"/>
      <point x="207" y="0"/>
      <point x="400" y="0" type="curve" smooth="yes"/>
      <point x="593" y="0"/>
      <point x="750" y="147"/>
      <point x="750" y="350" type="curve" smooth="yes"/>
      <point x="750" y="553"/>
      <point x="593" y="700"/>
      <point x="400" y="700" type="curve" smooth="yes"/>
      <point x="207" y="700"/>
      <point x="50" y="553"/>
    </contour>
    <contour>
      <point x="40" y="350" type="curve" smooth="yes"/>
      <point x="40" y="559"/>
      <point x="196" y="710"/>
      <point x="400" y="710" type="curve" smooth="yes"/>
      <point x="604" y="710"/>
      <point x="760" y="559"/>
      <point x="760" y="350" type="curve" smooth="yes"/>
      <point x="760" y="141"/>
      <point x="604" y="-10"/>
      <point x="400" y="-10" type="curve" smooth="yes"/>
      <point x="196" y="-10"/>
      <point x="40" y="141"/>
    </contour>
  </outline>
</glyph>
<glyph name="logicalnot" format="2">
  <advance width="620"/>
  <unicode hex="00AC"/>
  <outline>
    <contour>
      <point x="65" y="365" type="line"/>
      <point x="65" y="375" type="line"/>
      <point x="555" y="375" type="line"/>
      <point x="555" y="175" type="line"/>
      <point x="545" y="175" type="line"/>
      <point x="545" y="365" type="line"/>
    </contour>
  </outline>
</glyph>
<glyph name="uni00B3" format="2">
  <advance width="308"/>
  <unicode hex="00B3"/>
  <outline>
    <contour>
      <point x="140" y="497" type="curve"/>
      <point x="140" y="502" type="line"/>
      <point x="194" y="502"/>
      <point x="265" y="538"/>
      <point x="265" y="600" type="curve" smooth="yes"/>
      <point x="265" y="650"/>
      <point x="228" y="700"/>
      <point x="161" y="700" type="curve" smooth="yes"/>
      <point x="96" y="700"/>
      <point x="54" y="657"/>
      <point x="54" y="596" type="curve"/>
      <point x="48" y="596" type="line"/>
      <point x="48" y="661"/>
      <point x="92" y="706"/>
      <point x="161" y="706" type="curve" smooth="yes"/>
      <point x="233" y="706"/>
      <point x="271" y="653"/>
      <point x="271" y="600" type="curve" smooth="yes"/>
      <point x="271" y="535"/>
      <point x="203" y="497"/>
    </contour>
    <contour>
      <point x="158" y="274" type="curve" smooth="yes"/>
      <point x="77" y="274"/>
      <point x="30" y="326"/>
      <point x="30" y="391" type="curve"/>
      <point x="36" y="391" type="line"/>
      <point x="36" y="327"/>
      <point x="80" y="280"/>
      <point x="158" y="280" type="curve" smooth="yes"/>
      <point x="230" y="280"/>
      <point x="277" y="324"/>
      <point x="277" y="385" type="curve" smooth="yes"/>
      <point x="277" y="460"/>
      <point x="194" y="496"/>
      <point x="140" y="496" type="curve"/>
      <point x="140" y="501" type="line"/>
      <point x="203" y="501"/>
      <point x="283" y="462"/>
      <point x="283" y="385" type="curve" smooth="yes"/>
      <point x="283" y="320"/>
      <point x="233" y="274"/>
    </contour>
  </outline>
</glyph>
<glyph name="periodcentered" format="2">
  <advance width="242"/>
  <unicode hex="00B7"/>
  <outline>
    <contour>
      <point x="110" y="221" type="curve" smooth="yes"/>
      <point x="110" y="228"/>
      <point x="115" y="232"/>
      <point x="121" y="232" type="curve" smooth="yes"/>
      <point x="127" y="232"/>
      <point x="132" y="228"/>
      <point x="132" y="221" type="curve" smooth="yes"/>
      <point x="132" y="214"/>
      <point x="127" y="210"/>
      <point x="121" y="210" type="curve" smooth="yes"/>
      <point x="115" y="210"/>
      <point x="110" y="214"/>
    </contour>
  </outline>
</glyph>
<glyph name="onehalf" format="2">
  <advance width="819"/>
  <unicode hex="00BD"/>
  <outline>
    <contour>
      <point x="671" y="700" type="line"/>
      <point x="683" y="700" type="line"/>
      <point x="110" y="0" type="line"/>
      <point x="98" y="0" type="line"/>
    </contour>
    <contour>
      <point x="21" y="666" type="line"/>
      <point x="21" y="673" type="line"/>
      <point x="129" y="697" type="line"/>
      <point x="129" y="274" type="line"/>
      <point x="123" y="274" type="line"/>
      <point x="123" y="689" type="line"/>
    </contour>
    <contour>
      <point x="496" y="2" type="line"/>
      <point x="688" y="202" type="line" smooth="yes"/>
      <point x="717" y="233"/>
      <point x="745" y="263"/>
      <point x="745" y="313" type="curve" smooth="yes"/>
      <point x="745" y="360"/>
      <point x="716" y="423"/>
      <point x="638" y="423" type="curve" smooth="yes"/>
      <point x="566" y="423"/>
      <point x="520" y="363"/>
      <point x="520" y="278" type="curve"/>
      <point x="514" y="278" type="line"/>
      <point x="514" y="367"/>
      <point x="563" y="429"/>
      <point x="638" y="429" type="curve" smooth="yes"/>
      <point x="718" y="429"/>
      <point x="752" y="363"/>
      <point x="752" y="313" type="curve" smooth="yes"/>
      <point x="752" y="264"/>
      <point x="723" y="230"/>
      <point x="693" y="199" type="curve" smooth="yes"/>
      <point x="511" y="8" type="line"/>
      <point x="768" y="8" type="line"/>
      <point x="768" y="2" type="line"/>
    </contour>
  </outline>
</glyph>
<glyph name="Acircumflex" format="2">
  <advance width="600"/>
  <unicode hex="00C2"/>
  <outline>
    <contour>
      <point x="127" y="272" type="line"/>
      <point x="127" y="282" type="line"/>
      <point x="472" y="282" type="line"/>
      <point x="472" y="272" type="line"/>
    </contour>
    <contour>
      <point x="300" y="688" type="line"/>
      <point x="136" y="277" type="line"/>
      <point x="135" y="273" type="line"/>
      <point x="27" y="0" type="line"/>
      <point x="15" y="0" type="line"/>
      <point x="300" y="715" type="line"/>
      <point x="585" y="0" type="line"/>
      <point x="573" y="0" type="line"/>
      <point x="466" y="273" type="line"/>
      <point x="465" y="276" type="line"/>
    </contour>
    <contour>
      <point x="300" y="910" type="line"/>
      <point x="147" y="775" type="line"/>
      <point x="140" y="782" type="line"/>
      <point x="300" y="922" type="line"/>
      <point x="460" y="782" type="line"/>
      <point x="453" y="775" type="line"/>
    </contour>
  </outline>
</glyph>
<glyph name="Adieresis" format="2">
  <advance width="600"/>
  <unicode hex="00C4"/>
  <outline>
    <contour>
      <point x="127" y="272" type="line"/>
      <point x="127" y="282" type="line"/>
      <point x="472" y="282" type="line"/>
      <point x="472" y="272" type="line"/>
    </contour>
    <contour>
      <point x="300" y="688" type="line"/>
      <point x="136" y="277" type="line"/>
      <point x="135" y="273" type="line"/>
      <point x="27" y="0" type="line"/>
      <point x="15" y="0" type="line"/>
      <point x="300" y="715" type="line"/>
      <point x="585" y="0" type="line"/>
      <point x="573" y="0" type="line"/>
      <point x="466" y="273" type="line"/>
      <point x="465" y="276" type="line"/>
    </contour>
    <contour>
      <point x="389" y="806" type="curve" smooth="yes"/>
      <point x="389" y="813"/>
      <point x="394" y="817"/>
      <point x="400" y="817" type="curve" smooth="yes"/>
      <point x="406" y="817"/>
      <point x="411" y="813"/>
      <point x="411" y="806" type="curve" smooth="yes"/>
      <point x="411" y="799"/>
      <point x="406" y="795"/>
      <point x="400" y="795" type="curve" smooth="yes"/>
      <point x="394" y="795"/>
      <point x="389" y="799"/>
    </contour>
    <contour>
      <point x="189" y="806" type="curve" smooth="yes"/>
      <point x="189" y="813"/>
      <point x="194" y="817"/>
      <point x="200" y="817" type="curve" smooth="yes"/>
      <point x="206" y="817"/>
      <point x="211" y="813"/>
      <point x="211" y="806" type="curve" smooth="yes"/>
      <point x="211" y="799"/>
      <point x="206" y="795"/>
      <point x="200" y="795" type="curve" smooth="yes"/>
      <point x="194" y="795"/>
      <point x="189" y="799"/>
    </contour>
  </outline>
</glyph>
<glyph name="Ecircumflex" format="2">
  <advance width="510"/>
  <unicode hex="00CA"/>
  <outline>
    <contour>
      <point x="92" y="0" type="line"/>
      <point x="92" y="10" type="line"/>
      <point x="430" y="10" type="line"/>
      <point x="430" y="0" type="line"/>
    </contour>
    <contour>
      <point x="92" y="690" type="line"/>
      <point x="92" y="700" type="line"/>
      <point x="430" y="700" type="line"/>
      <point x="430" y="690" type="line"/>
    </contour>
    <contour>
      <point x="92" y="384" type="line"/>
      <point x="92" y="394" type="line"/>
      <point x="410" y="394" type="line"/>
      <point x="410" y="384" type="line"/>
    </contour>
    <contour>
      <point x="90" y="700" type="line"/>
      <point x="101" y="700" type="line"/>
      <point x="101" y="0" type="line"/>
      <point x="90" y="0" type="line"/>
    </contour>
    <contour>
      <point x="260" y="903" type="line"/>
      <point x="107" y="768" type="line"/>
      <point x="100" y="775" type="line"/>
      <point x="260" y="915" type="line"/>
      <point x="420" y="775" type="line"/>
      <point x="413" y="768" type="line"/>
    </contour>
  </outline>
</glyph>
<glyph name="Icircumflex" format="2">
  <advance width="180"/>
  <unicode hex="00CE"/>
  <outline>
    <contour>
      <point x="85" y="700" type="line"/>
      <point x="95" y="700" type="line"/>
      <point x="95" y="0" type="line"/>
      <point x="85" y="0" type="line"/>
    </contour>
    <contour>
      <point x="90" y="903" type="line"/>
      <point x="-63" y="768" type="line"/>
      <point x="-70" y="775" type="line"/>
      <point x="90" y="915" type="line"/>
      <point x="250" y="775" type="line"/>
      <point x="243" y="768" type="line"/>
    </contour>
  </outline>
</glyph>
<glyph name="Ntilde" format="2">
  <advance width="665"/>
  <unicode hex="00D1"/>
  <outline>
    <contour>
      <point x="584" y="700" type="line"/>
      <point x="595" y="700" type="line"/>
      <point x="595" y="-15" type="line"/>
      <point x="61" y="678" type="line"/>
      <point x="61" y="0" type="line"/>
      <point x="50" y="0" type="line"/>
      <point x="50" y="715" type="line"/>
      <point x="584" y="17" type="line"/>
    </contour>
    <contour>
      <point x="204.5" y="756" type="line"/>
      <point x="204.5" y="785"/>
      <point x="221.5" y="814"/>
      <point x="266.5" y="814" type="curve" smooth="yes"/>
      <point x="321.5" y="814"/>
      <point x="336.5" y="767"/>
      <point x="390.5" y="767" type="curve" smooth="yes"/>
      <point x="419.5" y="767"/>
      <point x="431.5" y="783"/>
      <point x="446.5" y="815" type="curve"/>
      <point x="455.5" y="812" type="line"/>
      <point x="439.5" y="775"/>
      <point x="419.5" y="759"/>
      <point x="389.5" y="759" type="curve" smooth="yes"/>
      <point x="334.5" y="759"/>
      <point x="313.5" y="806"/>
      <point x="268.5" y="806" type="curve" smooth="yes"/>
      <point x="227.5" y="806"/>
      <point x="213.5" y="780"/>
      <point x="213.5" y="755" type="curve"/>
    </contour>
  </outline>
</glyph>
<glyph name="Oacute" format="2">
  <advance width="774"/>
  <unicode hex="00D3"/>
  <outline>
    <contour>
      <point x="61" y="350" type="curve" smooth="yes"/>
      <point x="61" y="149"/>
      <point x="196" y="3"/>
      <point x="387" y="3" type="curve" smooth="yes"/>
      <point x="578" y="3"/>
      <point x="713" y="149"/>
      <point x="713" y="350" type="curve" smooth="yes"/>
      <point x="713" y="551"/>
      <point x="578" y="697"/>
      <point x="387" y="697" type="curve" smooth="yes"/>
      <point x="196" y="697"/>
      <point x="61" y="551"/>
    </contour>
    <contour>
      <point x="50" y="350" type="curve" smooth="yes"/>
      <point x="50" y="559"/>
      <point x="193" y="708"/>
      <point x="387" y="708" type="curve" smooth="yes"/>
      <point x="581" y="708"/>
      <point x="724" y="559"/>
      <point x="724" y="350" type="curve" smooth="yes"/>
      <point x="724" y="141"/>
      <point x="581" y="-8"/>
      <point x="387" y="-8" type="curve" smooth="yes"/>
      <point x="193" y="-8"/>
      <point x="50" y="141"/>
    </contour>
    <contour>
      <point x="522" y="925" type="line"/>
      <point x="350" y="768" type="line"/>
      <point x="344" y="773" type="line"/>
      <point x="514" y="933" type="line"/>
    </contour>
  </outline>
</glyph>
<glyph name="Oslash" format="2">
  <advance width="790"/>
  <unicode hex="00D8"/>
  <outline>
    <contour>
      <point x="61" y="350" type="curve" smooth="yes"/>
      <point x="61" y="149"/>
      <point x="196" y="3"/>
      <point x="387" y="3" type="curve" smooth="yes"/>
      <point x="578" y="3"/>
      <point x="713" y="149"/>
      <point x="713" y="350" type="curve" smooth="yes"/>
      <point x="713" y="551"/>
      <point x="578" y="697"/>
      <point x="387" y="697" type="curve" smooth="yes"/>
      <point x="196" y="697"/>
      <point x="61" y="551"/>
    </contour>
    <contour>
      <point x="50" y="350" type="curve" smooth="yes"/>
      <point x="50" y="559"/>
      <point x="193" y="708"/>
      <point x="387" y="708" type="curve" smooth="yes"/>
      <point x="581" y="708"/>
      <point x="724" y="559"/>
      <point x="724" y="350" type="curve" smooth="yes"/>
      <point x="724" y="141"/>
      <point x="581" y="-8"/>
      <point x="387" y="-8" type="curve" smooth="yes"/>
      <point x="193" y="-8"/>
      <point x="50" y="141"/>
    </contour>
    <contour>
      <point x="712" y="733" type="line"/>
      <point x="723" y="727" type="line"/>
      <point x="74" y="-33" type="line"/>
      <point x="64" y="-27" type="line"/>
    </contour>
  </outline>
</glyph>
<glyph name="Uacute" format="2">
  <advance width="576"/>
  <unicode hex="00DA"/>
  <outline>
    <contour>
      <point x="85" y="700" type="line"/>
      <point x="96" y="700" type="line"/>
      <point x="96" y="220" type="line" smooth="yes"/>
      <point x="96" y="84"/>
      <point x="168" y="1"/>
      <point x="288" y="1" type="curve" smooth="yes"/>
      <point x="408" y="1"/>
      <point x="480" y="84"/>
      <point x="480" y="220" type="curve" smooth="yes"/>
      <point x="480" y="700" type="line"/>
      <point x="491" y="700" type="line"/>
      <point x="491" y="220" type="line" smooth="yes"/>
      <point x="491" y="81"/>
      <point x="423" y="-10"/>
      <point x="288" y="-10" type="curve" smooth="yes"/>
      <point x="153" y="-10"/>
      <point x="85" y="81"/>
      <point x="85" y="220" type="curve" smooth="yes"/>
    </contour>
    <contour>
      <point x="424" y="925" type="line"/>
      <point x="250" y="768" type="line"/>
      <point x="246" y="773" type="line"/>
      <point x="416" y="933" type="line"/>
    </contour>
  </outline>
</glyph>
<glyph name="ae" format="2">
  <advance width="825"/>
  <unicode hex="00E6"/>
  <outline>
    <contour>
      <point x="194" y="-10" type="curve" smooth="yes"/>
      <point x="104" y="-10"/>
      <point x="40" y="50"/>
      <point x="40" y="132" type="curve" smooth="yes"/>
      <point x="40" y="222"/>
      <point x="114" y="281"/>
      <point x="225" y="281" type="curve" smooth="yes"/>
      <point x="282" y="281"/>
      <point x="332" y="263"/>
      <point x="360" y="234" type="curve"/>
      <point x="355" y="233" type="line"/>
      <point x="355" y="320" type="line" smooth="yes"/>
      <point x="355" y="411"/>
      <point x="313" y="460"/>
      <point x="235" y="460" type="curve" smooth="yes"/>
      <point x="181" y="460"/>
      <point x="126" y="437"/>
      <point x="84" y="395" type="curve"/>
      <point x="77" y="403" type="line"/>
      <point x="121" y="445"/>
      <point x="180" y="470"/>
      <point x="238" y="470" type="curve" smooth="yes"/>
      <point x="330" y="470"/>
      <point x="371" y="408"/>
      <point x="364" y="282" type="curve"/>
      <point x="360" y="282" type="line"/>
      <point x="380" y="391"/>
      <point x="474" y="470"/>
      <point x="583" y="470" type="curve" smooth="yes"/>
      <point x="697" y="470"/>
      <point x="787" y="374"/>
      <point x="787" y="253" type="curve" smooth="yes"/>
      <point x="787" y="243"/>
      <point x="786" y="241"/>
      <point x="784" y="228" type="curve"/>
      <point x="361" y="228" type="line"/>
      <point x="366" y="230" type="line"/>
      <point x="365" y="90"/>
      <point x="443" y="0"/>
      <point x="563" y="0" type="curve" smooth="yes"/>
      <point x="647" y="0"/>
      <point x="724" y="41"/>
      <point x="771" y="113" type="curve"/>
      <point x="779" y="107" type="line"/>
      <point x="734" y="33"/>
      <point x="653" y="-10"/>
      <point x="563" y="-10" type="curve" smooth="yes"/>
      <point x="451" y="-10"/>
      <point x="378" y="58"/>
      <point x="361" y="178" type="curve"/>
      <point x="366" y="178" type="line"/>
      <point x="354" y="59"/>
      <point x="290" y="-10"/>
    </contour>
    <contour>
      <point x="194" y="0" type="curve" smooth="yes"/>
      <point x="288" y="0"/>
      <point x="350" y="73"/>
      <point x="360" y="198" type="curve"/>
      <point x="359" y="179" type="line"/>
      <point x="355" y="230" type="line"/>
      <point x="358" y="224" type="line"/>
      <point x="331" y="253"/>
      <point x="281" y="271"/>
      <point x="225" y="271" type="curve" smooth="yes"/>
      <point x="121" y="271"/>
      <point x="50" y="214"/>
      <point x="50" y="132" type="curve" smooth="yes"/>
      <point x="50" y="56"/>
      <point x="111" y="0"/>
    </contour>
    <contour>
      <point x="365" y="236" type="curve"/>
      <point x="361" y="238" type="line"/>
      <point x="781" y="238" type="line"/>
      <point x="774" y="234" type="line"/>
      <point x="776" y="238"/>
      <point x="776" y="244"/>
      <point x="776" y="252" type="curve" smooth="yes"/>
      <point x="776" y="368"/>
      <point x="689" y="460"/>
      <point x="579" y="460" type="curve" smooth="yes"/>
      <point x="461" y="460"/>
      <point x="365" y="360"/>
    </contour>
  </outline>
</glyph>
<glyph name="egrave" format="2">
  <advance width="502"/>
  <unicode hex="00E8"/>
  <outline>
    <contour>
      <point x="52" y="228" type="line"/>
      <point x="52" y="238" type="line"/>
      <point x="446" y="238" type="line"/>
      <point x="455" y="366"/>
      <point x="359" y="460"/>
      <point x="255" y="460" type="curve" smooth="yes"/>
      <point x="153" y="460"/>
      <point x="55" y="376"/>
      <point x="55" y="232" type="curve"/>
      <point x="55" y="232" type="line"/>
      <point x="55" y="100"/>
      <point x="141" y="0"/>
      <point x="250" y="0" type="curve" smooth="yes"/>
      <point x="368" y="0"/>
      <point x="411" y="64"/>
      <point x="441" y="113" type="curve"/>
      <point x="449" y="107" type="line"/>
      <point x="419" y="59"/>
      <point x="375" y="-10"/>
      <point x="250" y="-10" type="curve" smooth="yes"/>
      <point x="135" y="-10"/>
      <point x="45" y="93"/>
      <point x="45" y="232" type="curve" smooth="yes"/>
      <point x="45" y="259"/>
      <point x="48" y="284"/>
      <point x="55" y="308" type="curve" smooth="yes"/>
      <point x="82" y="403"/>
      <point x="157" y="470"/>
      <point x="255" y="470" type="curve" smooth="yes"/>
      <point x="360" y="470"/>
      <point x="457" y="379"/>
      <point x="457" y="254" type="curve" smooth="yes"/>
      <point x="457" y="246"/>
      <point x="456" y="236"/>
      <point x="455" y="228" type="curve"/>
    </contour>
    <contour>
      <point x="110" y="687" type="line"/>
      <point x="118" y="695" type="line"/>
      <point x="288" y="535" type="line"/>
      <point x="282" y="530" type="line"/>
    </contour>
  </outline>
</glyph>
<glyph name="cacute" format="2">
  <advance width="488"/>
  <unicode hex="0107"/>
  <outline>
    <contour>
      <point x="50" y="230" type="curve" smooth="yes"/>
      <point x="50" y="96"/>
      <point x="148" y="0"/>
      <point x="273" y="0" type="curve" smooth="yes"/>
      <point x="347" y="0"/>
      <point x="407" y="37"/>
      <point x="428" y="61" type="curve"/>
      <point x="428" y="48" type="line"/>
      <point x="406" y="23"/>
      <point x="346" y="-10"/>
      <point x="273" y="-10" type="curve" smooth="yes"/>
      <point x="141" y="-10"/>
      <point x="40" y="91"/>
      <point x="40" y="230" type="curve" smooth="yes"/>
      <point x="40" y="369"/>
      <point x="141" y="470"/>
      <point x="273" y="470" type="curve" smooth="yes"/>
      <point x="346" y="470"/>
      <point x="406" y="436"/>
      <point x="428" y="412" type="curve"/>
      <point x="428" y="399" type="line"/>
      <point x="407" y="423"/>
      <point x="347" y="460"/>
      <point x="273" y="460" type="curve" smooth="yes"/>
      <point x="148" y="460"/>
      <point x="50" y="364"/>
    </contour>
    <contour>
      <point x="418" y="697" type="line"/>
      <point x="246" y="540" type="line"/>
      <point x="240" y="545" type="line"/>
      <point x="410" y="705" type="line"/>
    </contour>
  </outline>
</glyph>
<glyph name="Dcaron" format="2">
  <advance width="635"/>
  <unicode hex="010E"/>
  <outline>
    <contour>
      <point x="90" y="700" type="line"/>
      <point x="101" y="700" type="line"/>
      <point x="101" y="0" type="line"/>
      <point x="90" y="0" type="line"/>
    </contour>
    <contour>
      <point x="250" y="0" type="curve" smooth="yes"/>
      <point x="95" y="0" type="line"/>
      <point x="95" y="11" type="line"/>
      <point x="250" y="11" type="line" smooth="yes"/>
      <point x="450" y="11"/>
      <point x="574" y="146"/>
      <point x="574" y="350" type="curve" smooth="yes"/>
      <point x="574" y="553"/>
      <point x="450" y="689"/>
      <point x="250" y="689" type="curve" smooth="yes"/>
      <point x="95" y="689" type="line"/>
      <point x="95" y="700" type="line"/>
      <point x="250" y="700" type="line" smooth="yes"/>
      <point x="454" y="700"/>
      <point x="585" y="559"/>
      <point x="585" y="350" type="curve" smooth="yes"/>
      <point x="585" y="141"/>
      <point x="454" y="0"/>
    </contour>
    <contour>
      <point x="318" y="810" type="line"/>
      <point x="470" y="946" type="line"/>
      <point x="478" y="938" type="line"/>
      <point x="318" y="798" type="line"/>
      <point x="158" y="938" type="line"/>
      <point x="166" y="946" type="line"/>
    </contour>
  </outline>
</glyph>
<glyph name="Edotaccent" format="2">
  <advance width="510"/>
  <unicode hex="0116"/>
  <outline>
    <contour>
      <point x="92" y="0" type="line"/>
      <point x="92" y="10" type="line"/>
      <point x="430" y="10" type="line"/>
      <point x="430" y="0" type="line"/>
    </contour>
    <contour>
      <point x="92" y="690" type="line"/>
      <point x="92" y="700" type="line"/>
      <point x="430" y="700" type="line"/>
      <point x="430" y="690" type="line"/>
    </contour>
    <contour>
      <point x="92" y="384" type="line"/>
      <point x="92" y="394" type="line"/>
      <point x="410" y="394" type="line"/>
      <point x="410" y="384" type="line"/>
    </contour>
    <contour>
      <point x="90" y="700" type="line"/>
      <point x="101" y="700" type="line"/>
      <point x="101" y="0" type="line"/>
      <point x="90" y="0" type="line"/>
    </contour>
    <contour>
      <point x="249" y="779" type="curve" smooth="yes"/>
      <point x="249" y="786"/>
      <point x="254" y="790"/>
      <point x="260" y="790" type="curve" smooth="yes"/>
      <point x="266" y="790"/>
      <point x="271" y="786"/>
      <point x="271" y="779" type="curve" smooth="yes"/>
      <point x="271" y="772"/>
      <point x="266" y="768"/>
      <point x="260" y="768" type="curve" smooth="yes"/>
      <point x="254" y="768"/>
      <point x="249" y="772"/>
    </contour>
  </outline>
</glyph>
<glyph name="eogonek" format="2">
  <advance width="502"/>
  <unicode hex="0119"/>
  <outline>
    <contour>
      <point x="52" y="228" type="line"/>
      <point x="52" y="238" type="line"/>
      <point x="446" y="238" type="line"/>
      <point x="455" y="366"/>
      <point x="359" y="460"/>
      <point x="255" y="460" type="curve" smooth="yes"/>
      <point x="153" y="460"/>
      <point x="55" y="376"/>
      <point x="55" y="232" type="curve"/>
      <point x="55" y="232" type="line"/>
      <point x="55" y="100"/>
      <point x="141" y="0"/>
      <point x="250" y="0" type="curve" smooth="yes"/>
      <point x="368" y="0"/>
      <point x="411" y="64"/>
      <point x="441" y="113" type="curve"/>
      <point x="449" y="107" type="line"/>
      <point x="419" y="59"/>
      <point x="375" y="-10"/>
      <point x="250" y="-10" type="curve" smooth="yes"/>
      <point x="135" y="-10"/>
      <point x="45" y="93"/>
      <point x="45" y="232" type="curve" smooth="yes"/>
      <point x="45" y="259"/>
      <point x="48" y="284"/>
      <point x="55" y="308" type="curve" smooth="yes"/>
      <point x="82" y="403"/>
      <point x="157" y="470"/>
      <point x="255" y="470" type="curve" smooth="yes"/>
      <point x="360" y="470"/>
      <point x="457" y="379"/>
      <point x="457" y="254" type="curve" smooth="yes"/>
      <point x="457" y="246"/>
      <point x="456" y="236"/>
      <point x="455" y="228" type="curve"/>
    </contour>
    <contour>
      <point x="503.0" y="-127.0" type="curve"/>
      <point x="509.0" y="-134.0" type="line"/>
      <point x="494.0" y="-154.0"/>
      <point x="454.0" y="-174.0"/>
      <point x="411.0" y="-174.0" type="curve" smooth="yes"/>
      <point x="347.0" y="-174.0"/>
      <point x="309.0" y="-143.0"/>
      <point x="309.0" y="-94.0" type="curve" smooth="yes"/>
      <point x="309.0" y="-25.0"/>
      <point x="395.0" y="24.0"/>
      <point x="445.0" y="110.0" type="curve"/>
      <point x="449.0" y="107.0" type="line"/>
      <point x="401.0" y="25.0"/>
      <point x="319.0" y="-33.0"/>
      <point x="319.0" y="-94.0" type="curve" smooth="yes"/>
      <point x="319.0" y="-140.0"/>
      <point x="361.0" y="-164.0"/>
      <point x="411.0" y="-164.0" type="curve" smooth="yes"/>
      <point x="451.0" y="-164.0"/>
      <point x="488.0" y="-145.0"/>
    </contour>
  </outline>
</glyph>
<glyph name="Hcircumflex" format="2">
  <advance width="647"/>
  <unicode hex="0124"/>
  <outline>
    <contour>
      <point x="93" y="377" type="line"/>
      <point x="93" y="387" type="line"/>
      <point x="553" y="387" type="line"/>
      <point x="553" y="377" type="line"/>
    </contour>
    <contour>
      <point x="546" y="700" type="line"/>
      <point x="557" y="700" type="line"/>
      <point x="557" y="0" type="line"/>
      <point x="546" y="0" type="line"/>
    </contour>
    <contour>
      <point x="90" y="700" type="line"/>
      <point x="101" y="700" type="line"/>
      <point x="101" y="0" type="line"/>
      <point x="90" y="0" type="line"/>
    </contour>
    <contour>
      <point x="324" y="903" type="line"/>
      <point x="170" y="768" type="line"/>
      <point x="164" y="775" type="line"/>
      <point x="324" y="915" type="line"/>
      <point x="484" y="775" type="line"/>
      <point x="476" y="768" type="line"/>
    </contour>
  </outline>
</glyph>
<glyph name="uni0136" format="2">
  <advance width="454"/>
  <unicode hex="0136"/>
  <outline>
    <contour>
      <point x="85" y="700" type="line"/>
      <point x="96" y="700" type="line"/>
      <point x="96" y="0" type="line"/>
      <point x="85" y="0" type="line"/>
    </contour>
    <contour>
      <point x="408" y="700" type="line"/>
      <point x="424" y="700" type="line"/>
      <point x="109" y="372" type="line"/>
      <point x="439" y="0" type="line"/>
      <point x="422" y="0" type="line"/>
      <point x="94" y="372" type="line"/>
    </contour>
    <contour>
      <point x="309" y="-60" type="line"/>
      <point x="320" y="-65" type="line"/>
      <point x="210" y="-315" type="line"/>
      <point x="204" y="-313" type="line"/>
    </contour>
  </outline>
</glyph>
<glyph name="lslash" format="2">
  <advance width="160"/>
  <unicode hex="0142"/>
  <outline>
    <contour>
      <point x="-8" y="387" type="line"/>
      <point x="-15" y="395" type="line"/>
      <point x="165" y="545" type="line"/>
      <point x="172" y="537" type="line"/>
    </contour>
    <contour>
      <point x="75" y="780" type="line"/>
      <point x="85" y="780" type="line"/>
      <point x="85" y="0" type="line"/>
      <point x="75" y="0" type="line"/>
    </contour>
  </outline>
</glyph>
<glyph name="napostrophe" format="2">
  <advance width="615"/>
  <unicode hex="0149"/>
  <outline>
    <contour>
      <point x="185" y="460" type="line"/>
      <point x="185" y="0" type="line"/>
      <point x="175" y="0" type="line"/>
      <point x="175" y="460" type="line"/>
    </contour>
    <contour>
      <point x="470" y="320" type="line" smooth="yes"/>
      <point x="470" y="401"/>
      <point x="437" y="460"/>
      <point x="347" y="460" type="curve" smooth="yes"/>
      <point x="256" y="460"/>
      <point x="185" y="375"/>
      <point x="185" y="280" type="curve"/>
      <point x="180" y="280" type="line"/>
      <point x="180" y="389"/>
      <point x="252" y="470"/>
      <point x="347" y="470" type="curve" smooth="yes"/>
      <point x="442" y="470"/>
      <point x="480" y="409"/>
      <point x="480" y="320" type="curve" smooth="yes"/>
      <point x="480" y="0" type="line"/>
      <point x="470" y="0" type="line"/>
    </contour>
    <contour>
      <point x="173" y="700" type="line"/>
      <point x="185" y="700" type="line"/>
      <point x="90" y="470" type="line"/>
      <point x="80" y="470" type="line"/>
    </contour>
  </outline>
</glyph>
<glyph name="Eng" format="2">
  <advance width="725"/>
  <unicode hex="014A"/>
  <outline>
    <contour>
      <point x="527" y="-220" type="curve" smooth="yes"/>
      <point x="484" y="-220"/>
      <point x="457" y="-192"/>
      <point x="442" y="-172" type="curve"/>
      <point x="449" y="-165" type="line"/>
      <point x="465" y="-185"/>
      <point x="490" y="-210"/>
      <point x="527" y="-210" type="curve" smooth="yes"/>
      <point x="607" y="-210"/>
      <point x="625" y="-138"/>
      <point x="625" y="-82" type="curve" smooth="yes"/>
      <point x="625" y="-2" type="line"/>
      <point x="101" y="678" type="line"/>
      <point x="101" y="0" type="line"/>
      <point x="90" y="0" type="line"/>
      <point x="90" y="715" type="line"/>
      <point x="624" y="17" type="line"/>
      <point x="624" y="700" type="line"/>
      <point x="635" y="700" type="line"/>
      <point x="635" y="-82" type="line" smooth="yes"/>
      <point x="635" y="-151"/>
      <point x="611" y="-220"/>
    </contour>
  </outline>
</glyph>
<glyph name="eng" format="2">
  <advance width="475"/>
  <unicode hex="014B"/>
  <outline>
    <contour>
      <point x="282" y="-220" type="curve" smooth="yes"/>
      <point x="250" y="-220"/>
      <point x="221" y="-203"/>
      <point x="197" y="-172" type="curve"/>
      <point x="204" y="-165" type="line"/>
      <point x="228" y="-195"/>
      <point x="254" y="-210"/>
      <point x="282" y="-210" type="curve" smooth="yes"/>
      <point x="344" y="-210"/>
      <point x="380" y="-162"/>
      <point x="380" y="-82" type="curve" smooth="yes"/>
      <point x="380" y="320" type="line" smooth="yes"/>
      <point x="380" y="412"/>
      <point x="338" y="460"/>
      <point x="257" y="460" type="curve" smooth="yes"/>
      <point x="169" y="460"/>
      <point x="95" y="378"/>
      <point x="95" y="280" type="curve" smooth="yes"/>
      <point x="95" y="0" type="line"/>
      <point x="85" y="0" type="line"/>
      <point x="85" y="460" type="line"/>
      <point x="95" y="460" type="line"/>
      <point x="95" y="328" type="line"/>
      <point x="113" y="413"/>
      <point x="178" y="470"/>
      <point x="257" y="470" type="curve" smooth="yes"/>
      <point x="344" y="470"/>
      <point x="390" y="418"/>
      <point x="390" y="320" type="curve" smooth="yes"/>
      <point x="390" y="-82" type="line" smooth="yes"/>
      <point x="390" y="-170"/>
      <point x="351" y="-220"/>
    </contour>
  </outline>
</glyph>
<glyph name="omacron" format="2">
  <advance width="556"/>
  <unicode hex="014D"/>
  <outline>
    <contour>
      <point x="45" y="230" type="curve" smooth="yes"/>
      <point x="45" y="369"/>
      <point x="146" y="470"/>
      <point x="278" y="470" type="curve" smooth="yes"/>
      <point x="410" y="470"/>
      <point x="511" y="369"/>
      <point x="511" y="230" type="curve" smooth="yes"/>
      <point x="511" y="91"/>
      <point x="410" y="-10"/>
      <point x="278" y="-10" type="curve" smooth="yes"/>
      <point x="146" y="-10"/>
      <point x="45" y="91"/>
    </contour>
    <contour>
      <point x="55" y="230" type="curve" smooth="yes"/>
      <point x="55" y="96"/>
      <point x="153" y="0"/>
      <point x="278" y="0" type="curve" smooth="yes"/>
      <point x="403" y="0"/>
      <point x="501" y="96"/>
      <point x="501" y="230" type="curve" smooth="yes"/>
      <point x="501" y="364"/>
      <point x="403" y="460"/>
      <point x="278" y="460" type="curve" smooth="yes"/>
      <point x="153" y="460"/>
      <point x="55" y="364"/>
    </contour>
    <contour>
      <point x="103" y="550" type="line"/>
      <point x="103" y="560" type="line"/>
      <point x="453" y="560" type="line"/>
      <point x="453" y="550" type="line"/>
    </contour>
  </outline>
</glyph>
<glyph name="OE" format="2">
  <advance width="951"/>
  <unicode hex="0152"/>
  <outline>
    <contour>
      <point x="517" y="385" type="line"/>
      <point x="517" y="395" type="line"/>
      <point x="850" y="395" type="line"/>
      <point x="850" y="385" type="line"/>
    </contour>
    <contour>
      <point x="515" y="695" type="line"/>
      <point x="526" y="695" type="line"/>
      <point x="526" y="5" type="line"/>
      <point x="515" y="5" type="line"/>
    </contour>
    <contour>
      <point x="871" y="10" type="line"/>
      <point x="871" y="0" type="line"/>
      <point x="390" y="0" type="line" smooth="yes"/>
      <point x="187" y="0"/>
      <point x="40" y="141"/>
      <point x="40" y="350" type="curve" smooth="yes"/>
      <point x="40" y="559"/>
      <point x="186" y="700"/>
      <point x="390" y="700" type="curve" smooth="yes"/>
      <point x="870" y="700" type="line"/>
      <point x="870" y="690" type="line"/>
      <point x="523" y="690" type="line"/>
      <point x="506" y="690" type="line"/>
      <point x="390" y="690" type="line" smooth="yes"/>
      <point x="197" y="690"/>
      <point x="50" y="548"/>
      <point x="50" y="350" type="curve" smooth="yes"/>
      <point x="50" y="152"/>
      <point x="198" y="10"/>
      <point x="390" y="10" type="curve" smooth="yes"/>
      <point x="503" y="10" type="line"/>
      <point x="527" y="10" type="line"/>
    </contour>
  </outline>
</glyph>
<glyph name="utilde" format="2">
  <advance width="475"/>
  <unicode hex="0169"/>
  <outline>
    <contour>
      <point x="380" y="0" type="line"/>
      <point x="380" y="460" type="line"/>
      <point x="390" y="460" type="line"/>
      <point x="390" y="0" type="line"/>
    </contour>
    <contour>
      <point x="95" y="150" type="line" smooth="yes"/>
      <point x="95" y="59"/>
      <point x="128" y="0"/>
      <point x="218" y="0" type="curve" smooth="yes"/>
      <point x="309" y="0"/>
      <point x="380" y="85"/>
      <point x="380" y="180" type="curve"/>
      <point x="385" y="180" type="line"/>
      <point x="385" y="71"/>
      <point x="313" y="-10"/>
      <point x="218" y="-10" type="curve" smooth="yes"/>
      <point x="123" y="-10"/>
      <point x="85" y="51"/>
      <point x="85" y="150" type="curve" smooth="yes"/>
      <point x="85" y="460" type="line"/>
      <point x="95" y="460" type="line"/>
    </contour>
    <contour>
      <point x="112" y="531" type="line"/>
      <point x="112" y="560"/>
      <point x="129" y="589"/>
      <point x="174" y="589" type="curve" smooth="yes"/>
      <point x="229" y="589"/>
      <point x="244" y="542"/>
      <point x="298" y="542" type="curve" smooth="yes"/>
      <point x="327" y="542"/>
      <point x="339" y="558"/>
      <point x="354" y="590" type="curve"/>
      <point x="363" y="587" type="line"/>
      <point x="347" y="550"/>
      <point x="327" y="534"/>
      <point x="297" y="534" type="curve" smooth="yes"/>
      <point x="242" y="534"/>
      <point x="221" y="581"/>
      <point x="176" y="581" type="curve" smooth="yes"/>
      <point x="135" y="581"/>
      <point x="121" y="555"/>
      <point x="121" y="530" type="curve"/>
    </contour>
  </outline>
</glyph>
<glyph name="Zcaron" format="2">
  <advance width="535"/>
  <unicode hex="017D"/>
  <outline>
    <contour>
      <point x="40" y="689" type="line"/>
      <point x="40" y="700" type="line"/>
      <point x="520" y="700" type="line"/>
      <point x="42" y="11" type="line"/>
      <point x="510" y="11" type="line"/>
      <point x="510" y="0" type="line"/>
      <point x="20" y="0" type="line"/>
      <point x="498" y="689" type="line"/>
    </contour>
    <contour>
      <point x="280" y="780" type="line"/>
      <point x="432" y="916" type="line"/>
      <point x="440" y="908" type="line"/>
      <point x="280" y="768" type="line"/>
      <point x="120" y="908" type="line"/>
      <point x="128" y="916" type="line"/>
    </contour>
  </outline>
</glyph>
<glyph name="zcaron" format="2">
  <advance width="430"/>
  <unicode hex="017E"/>
  <outline>
    <contour>
      <point x="220" y="542" type="line"/>
      <point x="372" y="678" type="line"/>
      <point x="380" y="670" type="line"/>
      <point x="220" y="530" type="line"/>
      <point x="60" y="670" type="line"/>
      <point x="68" y="678" type="line"/>
    </contour>
    <contour>
      <point x="380" y="450" type="line"/>
      <point x="40" y="450" type="line"/>
      <point x="40" y="460" type="line"/>
      <point x="400" y="460" type="line"/>
      <point x="40" y="10" type="line"/>
      <point x="410" y="10" type="line"/>
      <point x="410" y="0" type="line"/>
      <point x="20" y="0" type="line"/>
    </contour>
  </outline>
</glyph>
<glyph name="florin" format="2">
  <advance width="600"/>
  <unicode hex="0192"/>
  <outline>
    <contour>
      <point x="172" y="-200" type="curve" smooth="yes"/>
      <point x="142" y="-200"/>
      <point x="117" y="-186"/>
      <point x="87" y="-153" type="curve"/>
      <point x="93" y="-146" type="line"/>
      <point x="123" y="-178"/>
      <point x="143" y="-190"/>
      <point x="169" y="-190" type="curve" smooth="yes"/>
      <point x="223" y="-190"/>
      <point x="260" y="-141"/>
      <point x="264" y="-63" type="curve" smooth="yes"/>
      <point x="292" y="450" type="line"/>
      <point x="201" y="450" type="line"/>
      <point x="202" y="460" type="line"/>
      <point x="294" y="460" type="line"/>
      <point x="304" y="650" type="line" smooth="yes"/>
      <point x="308" y="732"/>
      <point x="349" y="787"/>
      <point x="407" y="787" type="curve" smooth="yes"/>
      <point x="437" y="787"/>
      <point x="462" y="773"/>
      <point x="492" y="740" type="curve"/>
      <point x="486" y="733" type="line"/>
      <point x="456" y="765"/>
      <point x="436" y="777"/>
      <point x="410" y="777" type="curve" smooth="yes"/>
      <point x="356" y="777"/>
      <point x="319" y="728"/>
      <point x="315" y="650" type="curve" smooth="yes"/>
      <point x="304" y="460" type="line"/>
      <point x="386" y="460" type="line"/>
      <point x="385" y="450" type="line"/>
      <point x="304" y="450" type="line"/>
      <point x="275" y="-63" type="line" smooth="yes"/>
      <point x="271" y="-145"/>
      <point x="230" y="-200"/>
    </contour>
  </outline>
</glyph>
<glyph name="uni021A" format="2">
  <advance width="431"/>
  <unicode hex="021A"/>
  <outline>
    <contour>
      <point x="20" y="689" type="line"/>
      <point x="20" y="700" type="line"/>
      <point x="411" y="700" type="line"/>
      <point x="411" y="689" type="line"/>
      <point x="221" y="689" type="line"/>
      <point x="221" y="0" type="line"/>
      <point x="210" y="0" type="line"/>
      <point x="210" y="689" type="line"/>
    </contour>
    <contour>
      <point x="262.5" y="-60" type="line"/>
      <point x="273.5" y="-65" type="line"/>
      <point x="163.5" y="-315" type="line"/>
      <point x="157.5" y="-313" type="line"/>
    </contour>
  </outline>
</glyph>
<glyph name="breve" format="2">
  <advance width="546"/>
  <unicode hex="02D8"/>
  <outline>
    <contour>
      <point x="115" y="850" type="curve"/>
      <point x="125" y="850" type="line"/>
      <point x="125" y="784"/>
      <point x="181" y="720"/>
      <point x="273" y="720" type="curve" smooth="yes"/>
      <point x="365" y="720"/>
      <point x="421" y="784"/>
      <point x="421" y="850" type="curve"/>
      <point x="431" y="850" type="line"/>
      <point x="431" y="781"/>
      <point x="378" y="710"/>
      <point x="273" y="710" type="curve" smooth="yes"/>
      <point x="168" y="710"/>
      <point x="115" y="781"/>
    </contour>
  </outline>
</glyph>
<glyph name="dotaccent" format="2">
  <advance width="242"/>
  <unicode hex="02D9"/>
  <outline>
    <contour>
      <point x="110" y="751" type="curve" smooth="yes"/>
      <point x="110" y="758"/>
      <point x="115" y="762"/>
      <point x="121" y="762" type="curve" smooth="yes"/>
      <point x="127" y="762"/>
      <point x="132" y="758"/>
      <point x="132" y="751" type="curve" smooth="yes"/>
      <point x="132" y="744"/>
      <point x="127" y="740"/>
      <point x="121" y="740" type="curve" smooth="yes"/>
      <point x="115" y="740"/>
      <point x="110" y="744"/>
    </contour>
  </outline>
</glyph>
<glyph name="uni0302" format="2">
  <unicode hex="0302"/>
  <outline>
    <contour>
      <point x="7" y="583" type="line"/>
      <point x="0" y="590" type="line"/>
      <point x="160" y="730" type="line"/>
      <point x="320" y="590" type="line"/>
      <point x="313" y="583" type="line"/>
      <point x="158" y="720" type="line"/>
      <point x="162" y="720" type="line"/>
    </contour>
  </outline>
</glyph>
<glyph name="tildecomb" format="2">
  <unicode hex="0303"/>
  <outline>
    <contour>
      <point x="9" y="648" type="curve"/>
      <point x="0" y="649" type="line"/>
      <point x="0" y="678"/>
      <point x="18" y="707"/>
      <point x="62" y="707" type="curve" smooth="yes"/>
      <point x="118" y="707"/>
      <point x="134" y="660"/>
      <point x="186" y="660" type="curve" smooth="yes"/>
      <point x="216" y="660"/>
      <point x="227" y="676"/>
      <point x="242" y="708" type="curve"/>
      <point x="251" y="705" type="line"/>
      <point x="235" y="668"/>
      <point x="217" y="652"/>
      <point x="185" y="652" type="curve" smooth="yes"/>
      <point x="131" y="652"/>
      <point x="112" y="699"/>
      <point x="64" y="699" type="curve" smooth="yes"/>
      <point x="32" y="699"/>
      <point x="9" y="678"/>
    </contour>
  </outline>
</glyph>
<glyph name="uni0306" format="2">
  <unicode hex="0306"/>
  <outline>
    <contour>
      <point x="158" y="585" type="curve" smooth="yes"/>
      <point x="66" y="585"/>
      <point x="0" y="635"/>
      <point x="0" y="705" type="curve"/>
      <point x="10" y="705" type="line"/>
      <point x="10" y="643"/>
      <point x="74" y="596"/>
      <point x="158" y="596" type="curve" smooth="yes"/>
      <point x="242" y="596"/>
      <point x="306" y="643"/>
      <point x="306" y="705" type="curve"/>
      <point x="316" y="705" type="line"/>
      <point x="316" y="635"/>
      <point x="250" y="585"/>
    </contour>
  </outline>
</glyph>
<glyph name="uni0308" format="2">
  <unicode hex="0308"/>
  <outline>
    <contour>
      <point x="11" y="618" type="curve" smooth="yes"/>
      <point x="5" y="618"/>
      <point x="0" y="623"/>
      <point x="0" y="629" type="curve" smooth="yes"/>
      <point x="0" y="635"/>
      <point x="5" y="640"/>
      <point x="11" y="640" type="curve" smooth="yes"/>
      <point x="17" y="640"/>
      <point x="22" y="635"/>
      <point x="22" y="629" type="curve" smooth="yes"/>
      <point x="22" y="623"/>
      <point x="17" y="618"/>
    </contour>
    <contour>
      <point x="211" y="618" type="curve" smooth="yes"/>
      <point x="205" y="618"/>
      <point x="200" y="623"/>
      <point x="200" y="629" type="curve" smooth="yes"/>
      <point x="200" y="635"/>
      <point x="205" y="640"/>
      <point x="211" y="640" type="curve" smooth="yes"/>
      <point x="217" y="640"/>
      <point x="222" y="635"/>
      <point x="222" y="629" type="curve" smooth="yes"/>
      <point x="222" y="623"/>
      <point x="217" y="618"/>
    </contour>
  </outline>
</glyph>
<glyph name="uni030B" format="2">
  <unicode hex="030B"/>
  <outline>
    <contour>
      <point x="6" y="529" type="line"/>
      <point x="0" y="532" type="line"/>
      <point x="105" y="740" type="line"/>
      <point x="115" y="735" type="line"/>
    </contour>
    <contour>
      <point x="106" y="529" type="line"/>
      <point x="100" y="532" type="line"/>
      <point x="205" y="740" type="line"/>
      <point x="215" y="735" type="line"/>
    </contour>
  </outline>
</glyph>
<glyph name="uni030C" format="2">
  <unicode hex="030C"/>
  <outline>
    <contour>
      <point x="160" y="583" type="line"/>
      <point x="0" y="723" type="line"/>
      <point x="7" y="730" type="line"/>
      <point x="162" y="593" type="line"/>
      <point x="158" y="593" type="line"/>
      <point x="313" y="730" type="line"/>
      <point x="320" y="723" type="line"/>
    </contour>
  </outline>
</glyph>
<glyph name="uni0326" format="2">
  <unicode hex="0326"/>
  <outline>
    <contour>
      <point x="4" y="-210" type="line"/>
      <point x="0" y="-209" type="line"/>
      <point x="79" y="-19" type="line"/>
      <point x="87" y="-23" type="line"/>
    </contour>
  </outline>
</glyph>
<glyph name="uni0327" format="2">
  <unicode hex="0327"/>
  <outline>
    <contour>
      <point x="89" y="-220" type="curve" smooth="yes"/>
      <point x="55" y="-220"/>
      <point x="26" y="-208"/>
      <point x="0" y="-182" type="curve"/>
      <point x="8" y="-174" type="line"/>
      <point x="30" y="-198"/>
      <point x="56" y="-210"/>
      <point x="89" y="-210" type="curve" smooth="yes"/>
      <point x="146" y="-210"/>
      <point x="186" y="-176"/>
      <point x="186" y="-126" type="curve" smooth="yes"/>
      <point x="186" y="-86"/>
      <point x="161" y="-62"/>
      <point x="123" y="-62" type="curve" smooth="yes"/>
      <point x="97" y="-62"/>
      <point x="64" y="-72"/>
      <point x="42" y="-88" type="curve"/>
      <point x="97" y="0" type="line"/>
      <point x="107" y="0" type="line"/>
      <point x="62" y="-74" type="line"/>
      <point x="52" y="-77" type="line"/>
      <point x="65" y="-63"/>
      <point x="97" y="-52"/>
      <point x="123" y="-52" type="curve" smooth="yes"/>
      <point x="167" y="-52"/>
      <point x="198" y="-84"/>
      <point x="198" y="-126" type="curve" smooth="yes"/>
      <point x="198" y="-180"/>
      <point x="151" y="-220"/>
    </contour>
  </outline>
</glyph>
<glyph name="uni0394" format="2">
  <advance width="600"/>
  <unicode hex="0394"/>
  <outline>
    <contour>
      <point x="36" y="0" type="line"/>
      <point x="560" y="0" type="line"/>
      <point x="298" y="726" type="line"/>
    </contour>
    <contour>
      <point x="52" y="9" type="line"/>
      <point x="298" y="694" type="line"/>
      <point x="546" y="9" type="line"/>
    </contour>
  </outline>
</glyph>
<glyph name="uni03A9" format="2">
  <advance width="600"/>
  <unicode hex="03A9"/>
  <outline>
    <contour>
      <point x="66" y="0" type="line"/>
      <point x="262" y="0" type="line"/>
      <point x="262" y="2" type="line"/>
      <point x="159" y="55"/>
      <point x="78" y="192"/>
      <point x="78" y="312" type="curve" smooth="yes"/>
      <point x="78" y="448"/>
      <point x="174" y="550"/>
      <point x="300" y="550" type="curve" smooth="yes"/>
      <point x="426" y="550"/>
      <point x="521" y="448"/>
      <point x="521" y="312" type="curve" smooth="yes"/>
      <point x="521" y="192"/>
      <point x="441" y="54"/>
      <point x="338" y="2" type="curve"/>
      <point x="338" y="0" type="line"/>
      <point x="534" y="0" type="line"/>
      <point x="534" y="8" type="line"/>
      <point x="366" y="8" type="line"/>
      <point x="460" y="72"/>
      <point x="530" y="200"/>
      <point x="530" y="312" type="curve" smooth="yes"/>
      <point x="530" y="453"/>
      <point x="432" y="558"/>
      <point x="300" y="558" type="curve" smooth="yes"/>
      <point x="169" y="558"/>
      <point x="69" y="453"/>
      <point x="69" y="312" type="curve" smooth="yes"/>
      <point x="69" y="200"/>
      <point x="139" y="72"/>
      <point x="233" y="8" type="curve"/>
      <point x="66" y="8" type="line"/>
    </contour>
  </outline>
</glyph>
<glyph name="uni0411" format="2">
  <advance width="508"/>
  <unicode hex="0411"/>
  <outline>
    <contour>
      <point x="87" y="410" type="line"/>
      <point x="87" y="420" type="line"/>
      <point x="230" y="420" type="line" smooth="yes"/>
      <point x="365" y="420"/>
      <point x="468" y="339"/>
      <point x="468" y="210" type="curve" smooth="yes"/>
      <point x="468" y="81"/>
      <point x="365" y="0"/>
      <point x="230" y="0" type="curve" smooth="yes"/>
      <point x="87" y="0" type="line"/>
      <point x="87" y="10" type="line"/>
      <point x="230" y="10" type="line" smooth="yes"/>
      <point x="360" y="10"/>
      <point x="458" y="89"/>
      <point x="458" y="210" type="curve" smooth="yes"/>
      <point x="458" y="331"/>
      <point x="360" y="410"/>
      <point x="230" y="410" type="curve" smooth="yes"/>
    </contour>
    <contour>
      <point x="80" y="700" type="line"/>
      <point x="415" y="700" type="line"/>
      <point x="415" y="690" type="line"/>
      <point x="90" y="690" type="line"/>
      <point x="90" y="0" type="line"/>
      <point x="80" y="0" type="line"/>
    </contour>
  </outline>
</glyph>
<glyph name="uni0418" format="2">
  <advance width="725"/>
  <unicode hex="0418"/>
  <outline>
    <contour>
      <point x="635" y="717" type="line"/>
      <point x="90" y="-35" type="line"/>
      <point x="90" y="-17" type="line"/>
      <point x="635" y="735" type="line"/>
    </contour>
    <contour>
      <point x="100" y="700" type="line"/>
      <point x="100" y="-13" type="line"/>
      <point x="90" y="-35" type="line"/>
      <point x="90" y="700" type="line"/>
    </contour>
    <contour>
      <point x="635" y="735" type="line"/>
      <point x="635" y="0" type="line"/>
      <point x="625" y="0" type="line"/>
      <point x="625" y="715" type="line"/>
    </contour>
  </outline>
</glyph>
<glyph name="uni041D" format="2">
  <advance width="715"/>
  <unicode hex="041D"/>
  <outline>
    <contour>
      <point x="93" y="377" type="line"/>
      <point x="93" y="387" type="line"/>
      <point x="553" y="387" type="line"/>
      <point x="553" y="377" type="line"/>
    </contour>
    <contour>
      <point x="546" y="700" type="line"/>
      <point x="557" y="700" type="line"/>
      <point x="557" y="0" type="line"/>
      <point x="546" y="0" type="line"/>
    </contour>
    <contour>
      <point x="90" y="700" type="line"/>
      <point x="101" y="700" type="line"/>
      <point x="101" y="0" type="line"/>
      <point x="90" y="0" type="line"/>
    </contour>
  </outline>
</glyph>
<glyph name="uni0421" format="2">
  <advance width="685"/>
  <unicode hex="0421"/>
  <outline>
    <contour>
      <point x="62" y="350" type="curve" smooth="yes"/>
      <point x="62" y="150"/>
      <point x="193" y="4"/>
      <point x="380" y="4" type="curve" smooth="yes"/>
      <point x="479" y="4"/>
      <point x="547" y="31"/>
      <point x="605" y="88" type="curve"/>
      <point x="605" y="72" type="line"/>
      <point x="546" y="20"/>
      <point x="482" y="-8"/>
      <point x="380" y="-8" type="curve" smooth="yes"/>
      <point x="186" y="-8"/>
      <point x="50" y="141"/>
      <point x="50" y="350" type="curve" smooth="yes"/>
      <point x="50" y="559"/>
      <point x="186" y="708"/>
      <point x="380" y="708" type="curve" smooth="yes"/>
      <point x="482" y="708"/>
      <point x="546" y="680"/>
      <point x="605" y="628" type="curve"/>
      <point x="605" y="613" type="line"/>
      <point x="549" y="669"/>
      <point x="474" y="696"/>
      <point x="380" y="696" type="curve" smooth="yes"/>
      <point x="194" y="696"/>
      <point x="62" y="553"/>
    </contour>
  </outline>
</glyph>
<glyph name="uni0423" format="2">
  <advance width="480"/>
  <unicode hex="0423"/>
  <outline>
    <contour>
      <point x="480" y="700" type="line"/>
      <point x="151" y="0" type="line"/>
      <point x="141" y="0" type="line"/>
      <point x="246" y="224" type="line"/>
      <point x="0" y="700" type="line"/>
      <point x="10" y="700" type="line"/>
      <point x="253" y="230" type="line"/>
      <point x="249" y="230" type="line"/>
      <point x="470" y="700" type="line"/>
    </contour>
  </outline>
</glyph>
<glyph name="uni0424" format="2">
  <advance width="730"/>
  <unicode hex="0424"/>
  <outline>
    <contour>
      <point x="360" y="700" type="line"/>
      <point x="370" y="700" type="line"/>
      <point x="370" y="0" type="line"/>
      <point x="360" y="0" type="line"/>
    </contour>
    <contour>
      <point x="680" y="350" type="curve" smooth="yes"/>
      <point x="680" y="513"/>
      <point x="548" y="609"/>
      <point x="370" y="609" type="curve" smooth="yes"/>
      <point x="360" y="609" type="line" smooth="yes"/>
      <point x="182" y="609"/>
      <point x="50" y="513"/>
      <point x="50" y="350" type="curve" smooth="yes"/>
      <point x="50" y="187"/>
      <point x="182" y="89"/>
      <point x="360" y="89" type="curve" smooth="yes"/>
      <point x="370" y="89" type="line" smooth="yes"/>
      <point x="548" y="89"/>
      <point x="680" y="187"/>
    </contour>
    <contour>
      <point x="690" y="350" type="curve" smooth="yes"/>
      <point x="690" y="181"/>
      <point x="554" y="80"/>
      <point x="370" y="80" type="curve" smooth="yes"/>
      <point x="360" y="80" type="line" smooth="yes"/>
      <point x="176" y="80"/>
      <point x="40" y="181"/>
      <point x="40" y="350" type="curve" smooth="yes"/>
      <point x="40" y="519"/>
      <point x="176" y="620"/>
      <point x="360" y="620" type="curve" smooth="yes"/>
      <point x="370" y="620" type="line" smooth="yes"/>
      <point x="554" y="620"/>
      <point x="690" y="519"/>
    </contour>
  </outline>
</glyph>
<glyph name="uni042B" format="2">
  <advance width="685"/>
  <unicode hex="042B"/>
  <outline>
    <contour>
      <point x="590" y="700" type="line"/>
      <point x="600" y="700" type="line"/>
      <point x="600" y="0" type="line"/>
      <point x="590" y="0" type="line"/>
    </contour>
    <contour>
      <point x="75" y="700" type="line"/>
      <point x="85" y="700" type="line"/>
      <point x="85" y="0" type="line"/>
      <point x="75" y="0" type="line"/>
    </contour>
    <contour>
      <point x="80" y="410" type="line"/>
      <point x="80" y="420" type="line"/>
      <point x="223" y="420" type="line" smooth="yes"/>
      <point x="358" y="420"/>
      <point x="461" y="339"/>
      <point x="461" y="210" type="curve" smooth="yes"/>
      <point x="461" y="81"/>
      <point x="358" y="0"/>
      <point x="223" y="0" type="curve" smooth="yes"/>
      <point x="80" y="0" type="line"/>
      <point x="80" y="10" type="line"/>
      <point x="223" y="10" type="line" smooth="yes"/>
      <point x="353" y="10"/>
      <point x="451" y="89"/>
      <point x="451" y="210" type="curve" smooth="yes"/>
      <point x="451" y="331"/>
      <point x="353" y="410"/>
      <point x="223" y="410" type="curve" smooth="yes"/>
    </contour>
  </outline>
</glyph>
<glyph name="uni042E" format="2">
  <advance width="1024"/>
  <unicode hex="042E"/>
  <outline>
    <contour>
      <point x="87" y="375" type="line"/>
      <point x="87" y="385" type="line"/>
      <point x="307" y="385" type="line"/>
      <point x="307" y="375" type="line"/>
    </contour>
    <contour>
      <point x="80" y="700" type="line"/>
      <point x="90" y="700" type="line"/>
      <point x="90" y="0" type="line"/>
      <point x="80" y="0" type="line"/>
    </contour>
    <contour>
      <point x="311" y="352" type="curve" smooth="yes"/>
      <point x="311" y="151"/>
      <point x="446" y="3"/>
      <point x="637" y="3" type="curve" smooth="yes"/>
      <point x="828" y="3"/>
      <point x="963" y="151"/>
      <point x="963" y="352" type="curve" smooth="yes"/>
      <point x="963" y="553"/>
      <point x="828" y="699"/>
      <point x="637" y="699" type="curve" smooth="yes"/>
      <point x="446" y="699"/>
      <point x="311" y="553"/>
    </contour>
    <contour>
      <point x="300" y="352" type="curve" smooth="yes"/>
      <point x="300" y="561"/>
      <point x="443" y="710"/>
      <point x="637" y="710" type="curve" smooth="yes"/>
      <point x="831" y="710"/>
      <point x="974" y="561"/>
      <point x="974" y="352" type="curve" smooth="yes"/>
      <point x="974" y="143"/>
      <point x="831" y="-9"/>
      <point x="637" y="-9" type="curve" smooth="yes"/>
      <point x="443" y="-9"/>
      <point x="300" y="143"/>
    </contour>
  </outline>
</glyph>
<glyph name="uni0431" format="2">
  <advance width="546"/>
  <unicode hex="0431"/>
  <outline>
    <contour>
      <point x="273" y="460" type="curve"/>
      <point x="273" y="470" type="line"/>
      <point x="408" y="470"/>
      <point x="511" y="369"/>
      <point x="511" y="230" type="curve" smooth="yes"/>
      <point x="511" y="91"/>
      <point x="408" y="-10"/>
      <point x="273" y="-10" type="curve" smooth="yes"/>
      <point x="138" y="-10"/>
      <point x="35" y="91"/>
      <point x="35" y="290" type="curve"/>
      <point x="54" y="230" type="line"/>
      <point x="54" y="94"/>
      <point x="153" y="0"/>
      <point x="273" y="0" type="curve" smooth="yes"/>
      <point x="393" y="0"/>
      <point x="501" y="94"/>
      <point x="501" y="230" type="curve" smooth="yes"/>
      <point x="501" y="366"/>
      <point x="401" y="460"/>
    </contour>
    <contour>
      <point x="43" y="230" type="line"/>
      <point x="43" y="379"/>
      <point x="164" y="470"/>
      <point x="273" y="470" type="curve"/>
      <point x="273" y="460" type="line"/>
      <point x="173" y="460"/>
      <point x="54" y="376"/>
      <point x="54" y="230" type="curve"/>
    </contour>
    <contour>
      <point x="35" y="290" type="line"/>
      <point x="35" y="477"/>
      <point x="83.0791" y="600.856"/>
      <point x="244" y="656" type="curve" smooth="yes"/>
      <point x="334.824" y="687.123"/>
      <point x="374" y="732"/>
      <point x="384" y="780" type="curve"/>
      <point x="394" y="780" type="line"/>
      <point x="385" y="727"/>
      <point x="341.975" y="679.605"/>
      <point x="247" y="646" type="curve" smooth="yes"/>
      <point x="96.045" y="592.587"/>
      <point x="45" y="484.576"/>
      <point x="45" y="280" type="curve" smooth="yes"/>
      <point x="45" y="230" type="line"/>
    </contour>
  </outline>
</glyph>
<glyph name="uni0434" format="2">
  <advance width="655"/>
  <unicode hex="0434"/>
  <outline>
    <contour>
      <point x="325" y="470" type="line"/>
      <point x="111" y="10" type="line"/>
      <point x="100" y="10" type="line"/>
      <point x="325" y="495" type="line"/>
      <point x="550" y="10" type="line"/>
      <point x="539" y="10" type="line"/>
    </contour>
    <contour>
      <point x="600" y="0" type="line"/>
      <point x="50" y="0" type="line"/>
      <point x="50" y="-90" type="line"/>
      <point x="40" y="-90" type="line"/>
      <point x="40" y="10" type="line"/>
      <point x="610" y="10" type="line"/>
      <point x="610" y="-90" type="line"/>
      <point x="600" y="-90" type="line"/>
    </contour>
  </outline>
</glyph>
<glyph name="uni0437" format="2">
  <advance width="476"/>
  <unicode hex="0437"/>
  <outline>
    <contour>
      <point x="253" y="243" type="curve"/>
      <point x="253" y="250" type="line"/>
      <point x="343" y="250"/>
      <point x="401" y="289"/>
      <point x="401" y="353" type="curve" smooth="yes"/>
      <point x="401" y="420"/>
      <point x="338" y="460"/>
      <point x="259" y="460" type="curve" smooth="yes"/>
      <point x="167" y="460"/>
      <point x="100" y="399"/>
      <point x="100" y="336" type="curve"/>
      <point x="90" y="336" type="line"/>
      <point x="90" y="410"/>
      <point x="168" y="470"/>
      <point x="260" y="470" type="curve" smooth="yes"/>
      <point x="345" y="470"/>
      <point x="411" y="426"/>
      <point x="411" y="353" type="curve" smooth="yes"/>
      <point x="411" y="288"/>
      <point x="359" y="243"/>
    </contour>
    <contour>
      <point x="256" y="-10" type="curve" smooth="yes"/>
      <point x="147" y="-10"/>
      <point x="73" y="56"/>
      <point x="63" y="145" type="curve"/>
      <point x="73" y="145" type="line"/>
      <point x="84" y="63"/>
      <point x="151" y="0"/>
      <point x="256" y="0" type="curve" smooth="yes"/>
      <point x="335" y="0"/>
      <point x="421" y="39"/>
      <point x="421" y="126" type="curve" smooth="yes"/>
      <point x="421" y="210"/>
      <point x="341" y="240"/>
      <point x="253" y="240" type="curve"/>
      <point x="253" y="247" type="line"/>
      <point x="370" y="247"/>
      <point x="431" y="204"/>
      <point x="431" y="127" type="curve" smooth="yes"/>
      <point x="431" y="36"/>
      <point x="346" y="-10"/>
    </contour>
  </outline>
</glyph>
<glyph name="uni0438" format="2">
  <advance width="475"/>
  <unicode hex="0438"/>
  <outline>
    <contour>
      <point x="390" y="467" type="line"/>
      <point x="80" y="-35" type="line"/>
      <point x="85" y="-7" type="line"/>
      <point x="395" y="495" type="line"/>
    </contour>
    <contour>
      <point x="90" y="460" type="line"/>
      <point x="90" y="-15" type="line"/>
      <point x="80" y="-35" type="line"/>
      <point x="80" y="460" type="line"/>
    </contour>
    <contour>
      <point x="395" y="495" type="line"/>
      <point x="395" y="0" type="line"/>
      <point x="385" y="0" type="line"/>
      <point x="385" y="475" type="line"/>
    </contour>
  </outline>
</glyph>
<glyph name="uni043B" format="2">
  <advance width="488"/>
  <unicode hex="043B"/>
  <outline>
    <contour>
      <point x="408" y="460" type="line"/>
      <point x="408" y="0" type="line"/>
      <point x="398" y="0" type="line"/>
      <point x="398" y="450" type="line"/>
      <point x="93" y="450" type="line"/>
      <point x="93" y="160" type="line" smooth="yes"/>
      <point x="93" y="51"/>
      <point x="54" y="0"/>
      <point x="10" y="0" type="curve"/>
      <point x="10" y="10" type="line"/>
      <point x="50" y="10"/>
      <point x="83" y="64"/>
      <point x="83" y="160" type="curve" smooth="yes"/>
      <point x="83" y="460" type="line"/>
    </contour>
  </outline>
</glyph>
<glyph name="uni0446" format="2">
  <advance width="495"/>
  <unicode hex="0446"/>
  <outline>
    <contour>
      <point x="380" y="10" type="line"/>
      <point x="460" y="10" type="line"/>
      <point x="460" y="-90" type="line"/>
      <point x="450" y="-90" type="line"/>
      <point x="450" y="0" type="line"/>
      <point x="75" y="0" type="line"/>
      <point x="75" y="460" type="line"/>
      <point x="85" y="460" type="line"/>
      <point x="85" y="10" type="line"/>
      <point x="370" y="10" type="line"/>
      <point x="370" y="460" type="line"/>
      <point x="380" y="460" type="line"/>
    </contour>
  </outline>
</glyph>
<glyph name="uni044A" format="2">
  <advance width="513"/>
  <unicode hex="044A"/>
  <outline>
    <contour>
      <point x="177" y="276" type="line"/>
      <point x="177" y="286" type="line"/>
      <point x="295" y="286" type="line" smooth="yes"/>
      <point x="390" y="286"/>
      <point x="463" y="242"/>
      <point x="463" y="143" type="curve" smooth="yes"/>
      <point x="463" y="44"/>
      <point x="390" y="0"/>
      <point x="295" y="0" type="curve" smooth="yes"/>
      <point x="177" y="0" type="line"/>
      <point x="177" y="10" type="line"/>
      <point x="295" y="10" type="line" smooth="yes"/>
      <point x="383" y="10"/>
      <point x="453" y="47"/>
      <point x="453" y="143" type="curve" smooth="yes"/>
      <point x="453" y="234"/>
      <point x="383" y="276"/>
      <point x="295" y="276" type="curve" smooth="yes"/>
    </contour>
    <contour>
      <point x="170" y="450" type="line"/>
      <point x="5" y="450" type="line"/>
      <point x="5" y="460" type="line"/>
      <point x="180" y="460" type="line"/>
      <point x="180" y="0" type="line"/>
      <point x="170" y="0" type="line"/>
    </contour>
  </outline>
</glyph>
<glyph name="uni1E9E" format="2">
  <advance width="666"/>
  <unicode hex="1E9E"/>
  <outline>
    <contour>
      <point x="422" y="-10" type="curve" smooth="yes"/>
      <point x="548" y="-10"/>
      <point x="634" y="62"/>
      <point x="634" y="166" type="curve" smooth="yes"/>
      <point x="634" y="324"/>
      <point x="424" y="309"/>
      <point x="424" y="365" type="curve" smooth="yes"/>
      <point x="424" y="411"/>
      <point x="568" y="421"/>
      <point x="568" y="543" type="curve" smooth="yes"/>
      <point x="568" y="633"/>
      <point x="490" y="708"/>
      <point x="348" y="708" type="curve" smooth="yes"/>
      <point x="205" y="708"/>
      <point x="80" y="632"/>
      <point x="80" y="454" type="curve" smooth="yes"/>
      <point x="80" y="0" type="line"/>
      <point x="92" y="0" type="line"/>
      <point x="92" y="448" type="line" smooth="yes"/>
      <point x="92" y="618"/>
      <point x="203" y="698"/>
      <point x="348" y="698" type="curve" smooth="yes"/>
      <point x="490" y="698"/>
      <point x="556" y="623"/>
      <point x="556" y="543" type="curve" smooth="yes"/>
      <point x="556" y="427"/>
      <point x="412" y="421"/>
      <point x="412" y="365" type="curve" smooth="yes"/>
      <point x="412" y="297"/>
      <point x="622" y="320"/>
      <point x="622" y="166" type="curve" smooth="yes"/>
      <point x="622" y="73"/>
      <point x="548" y="0"/>
      <point x="422" y="0" type="curve" smooth="yes"/>
      <point x="362" y="0"/>
      <point x="294" y="16"/>
      <point x="236" y="62" type="curve"/>
      <point x="228" y="55" type="line"/>
      <point x="278" y="15"/>
      <point x="346" y="-10"/>
    </contour>
  </outline>
</glyph>
<glyph name="quoteleft" format="2">
  <advance width="225"/>
  <unicode hex="2018"/>
  <outline>
    <contour>
      <point x="72" y="470" type="line"/>
      <point x="60" y="470" type="line"/>
      <point x="155" y="700" type="line"/>
      <point x="165" y="700" type="line"/>
    </contour>
  </outline>
</glyph>
<glyph name="daggerdbl" format="2">
  <advance width="500"/>
  <unicode hex="2021"/>
  <outline>
    <contour>
      <point x="90" y="120" type="line"/>
      <point x="410" y="120" type="line"/>
      <point x="410" y="110" type="line"/>
      <point x="90" y="110" type="line"/>
    </contour>
    <contour>
      <point x="90" y="540" type="line"/>
      <point x="410" y="540" type="line"/>
      <point x="410" y="530" type="line"/>
      <point x="90" y="530" type="line"/>
    </contour>
    <contour>
      <point x="245" y="700" type="line"/>
      <point x="255" y="700" type="line"/>
      <point x="255" y="-150" type="line"/>
      <point x="245" y="-150" type="line"/>
    </contour>
  </outline>
</glyph>
<glyph name="guilsinglright" format="2">
  <advance width="350"/>
  <unicode hex="203A"/>
  <outline>
    <contour>
      <point x="300" y="255" type="line"/>
      <point x="95" y="483" type="line"/>
      <point x="102" y="490" type="line"/>
      <point x="310" y="255" type="line"/>
      <point x="102" y="20" type="line"/>
      <point x="95" y="27" type="line"/>
    </contour>
  </outline>
</glyph>
<glyph name="uni2074" format="2">
  <advance width="371"/>
  <unicode hex="2074"/>
  <outline>
    <contour>
      <point x="35" y="364" type="line"/>
      <point x="41" y="370" type="line"/>
      <point x="261" y="370" type="line" smooth="yes"/>
      <point x="263" y="370" type="line" smooth="yes"/>
      <point x="331" y="370" type="line"/>
      <point x="331" y="364" type="line"/>
    </contour>
    <contour>
      <point x="42" y="364" type="line"/>
      <point x="35" y="364" type="line"/>
      <point x="265" y="700" type="line"/>
      <point x="266" y="700" type="line"/>
      <point x="266" y="280" type="line"/>
      <point x="259" y="280" type="line"/>
      <point x="259" y="365" type="line" smooth="yes"/>
      <point x="259" y="368" type="line" smooth="yes"/>
      <point x="259" y="680" type="line"/>
    </contour>
  </outline>
</glyph>
<glyph name="uni2078" format="2">
  <advance width="302"/>
  <unicode hex="2078"/>
  <outline>
    <contour>
      <point x="47" y="605" type="curve" smooth="yes"/>
      <point x="47" y="658"/>
      <point x="91" y="706"/>
      <point x="151" y="706" type="curve" smooth="yes"/>
      <point x="211" y="706"/>
      <point x="255" y="658"/>
      <point x="255" y="605" type="curve" smooth="yes"/>
      <point x="255" y="546"/>
      <point x="202" y="501"/>
      <point x="151" y="501" type="curve" smooth="yes"/>
      <point x="100" y="501"/>
      <point x="47" y="546"/>
    </contour>
    <contour>
      <point x="53" y="605" type="curve" smooth="yes"/>
      <point x="53" y="547"/>
      <point x="109" y="505"/>
      <point x="151" y="505" type="curve" smooth="yes"/>
      <point x="193" y="505"/>
      <point x="249" y="547"/>
      <point x="249" y="605" type="curve" smooth="yes"/>
      <point x="249" y="657"/>
      <point x="208" y="700"/>
      <point x="151" y="700" type="curve" smooth="yes"/>
      <point x="94" y="700"/>
      <point x="53" y="657"/>
    </contour>
    <contour>
      <point x="35" y="391" type="curve" smooth="yes"/>
      <point x="35" y="456"/>
      <point x="91" y="503"/>
      <point x="151" y="503" type="curve" smooth="yes"/>
      <point x="211" y="503"/>
      <point x="267" y="456"/>
      <point x="267" y="391" type="curve" smooth="yes"/>
      <point x="267" y="326"/>
      <point x="226" y="274"/>
      <point x="151" y="274" type="curve" smooth="yes"/>
      <point x="76" y="274"/>
      <point x="35" y="326"/>
    </contour>
    <contour>
      <point x="41" y="391" type="curve" smooth="yes"/>
      <point x="41" y="327"/>
      <point x="82" y="280"/>
      <point x="151" y="280" type="curve" smooth="yes"/>
      <point x="220" y="280"/>
      <point x="261" y="327"/>
      <point x="261" y="391" type="curve" smooth="yes"/>
      <point x="261" y="455"/>
      <point x="205" y="499"/>
      <point x="151" y="499" type="curve" smooth="yes"/>
      <point x="97" y="499"/>
      <point x="41" y="455"/>
    </contour>
  </outline>
</glyph>
<glyph name="uni2079" format="2">
  <advance width="332"/>
  <unicode hex="2079"/>
  <outline>
    <contour>
      <point x="286" y="570" type="curve" smooth="yes"/>
      <point x="286" y="646"/>
      <point x="236" y="702"/>
      <point x="161" y="702" type="curve" smooth="yes"/>
      <point x="86" y="702"/>
      <point x="36" y="646"/>
      <point x="36" y="570" type="curve" smooth="yes"/>
      <point x="36" y="500"/>
      <point x="92" y="446"/>
      <point x="155" y="446" type="curve" smooth="yes"/>
      <point x="239" y="446"/>
      <point x="286" y="506"/>
    </contour>
    <contour>
      <point x="124" y="282" type="line"/>
      <point x="117" y="282" type="line"/>
      <point x="262" y="489" type="line"/>
      <point x="262" y="489" type="line"/>
      <point x="237" y="458"/>
      <point x="200" y="440"/>
      <point x="155" y="440" type="curve" smooth="yes"/>
      <point x="87" y="440"/>
      <point x="30" y="499"/>
      <point x="30" y="570" type="curve" smooth="yes"/>
      <point x="30" y="650"/>
      <point x="80" y="708"/>
      <point x="161" y="708" type="curve" smooth="yes"/>
      <point x="242" y="708"/>
      <point x="292" y="650"/>
      <point x="292" y="570" type="curve" smooth="yes"/>
      <point x="292" y="536"/>
      <point x="274" y="497"/>
      <point x="258" y="475" type="curve" smooth="yes"/>
    </contour>
  </outline>
</glyph>
<glyph name="uni2087" format="2">
  <advance width="352"/>
  <unicode hex="2087"/>
  <outline>
    <contour>
      <point x="35" y="414" type="line"/>
      <point x="35" y="420" type="line"/>
      <point x="317" y="420" type="line"/>
      <point x="95" y="0" type="line"/>
      <point x="88" y="0" type="line"/>
      <point x="307" y="414" type="line"/>
    </contour>
  </outline>
</glyph>
<glyph name="uni2088" format="2">
  <advance width="302"/>
  <unicode hex="2088"/>
  <outline>
    <contour>
      <point x="47" y="325" type="curve" smooth="yes"/>
      <point x="47" y="378"/>
      <point x="91" y="426"/>
      <point x="151" y="426" type="curve" smooth="yes"/>
      <point x="211" y="426"/>
      <point x="255" y="378"/>
      <point x="255" y="325" type="curve" smooth="yes"/>
      <point x="255" y="266"/>
      <point x="202" y="221"/>
      <point x="151" y="221" type="curve" smooth="yes"/>
      <point x="100" y="221"/>
      <point x="47" y="266"/>
    </contour>
    <contour>
      <point x="53" y="325" type="curve" smooth="yes"/>
      <point x="53" y="267"/>
      <point x="109" y="225"/>
      <point x="151" y="225" type="curve" smooth="yes"/>
      <point x="193" y="225"/>
      <point x="249" y="267"/>
      <point x="249" y="325" type="curve" smooth="yes"/>
      <point x="249" y="377"/>
      <point x="208" y="420"/>
      <point x="151" y="420" type="curve" smooth="yes"/>
      <point x="94" y="420"/>
      <point x="53" y="377"/>
    </contour>
    <contour>
      <point x="35" y="111" type="curve" smooth="yes"/>
      <point x="35" y="176"/>
      <point x="91" y="223"/>
      <point x="151" y="223" type="curve" smooth="yes"/>
      <point x="211" y="223"/>
      <point x="267" y="176"/>
      <point x="267" y="111" type="curve" smooth="yes"/>
      <point x="267" y="46"/>
      <point x="226" y="-6"/>
      <point x="151" y="-6" type="curve" smooth="yes"/>
      <point x="76" y="-6"/>
      <point x="35" y="46"/>
    </contour>
    <contour>
      <point x="41" y="111" type="curve" smooth="yes"/>
      <point x="41" y="47"/>
      <point x="82" y="0"/>
      <point x="151" y="0" type="curve" smooth="yes"/>
      <point x="220" y="0"/>
      <point x="261" y="47"/>
      <point x="261" y="111" type="curve" smooth="yes"/>
      <point x="261" y="175"/>
      <point x="205" y="219"/>
      <point x="151" y="219" type="curve" smooth="yes"/>
      <point x="97" y="219"/>
      <point x="41" y="175"/>
    </contour>
  </outline>
</glyph>
<glyph name="Euro" format="2">
  <advance width="700"/>
  <unicode hex="20AC"/>
  <outline>
    <contour>
      <point x="75" y="445" type="line"/>
      <point x="75" y="455" type="line"/>
      <point x="576" y="455" type="line"/>
      <point x="576" y="445" type="line"/>
    </contour>
    <contour>
      <point x="75" y="325" type="line"/>
      <point x="75" y="335" type="line"/>
      <point x="550" y="335" type="line"/>
      <point x="550" y="325" type="line"/>
    </contour>
    <contour>
      <point x="160" y="350" type="curve" smooth="yes"/>
      <point x="160" y="145"/>
      <point x="270" y="0"/>
      <point x="430" y="0" type="curve" smooth="yes"/>
      <point x="487" y="0"/>
      <point x="539" y="16"/>
      <point x="580" y="46" type="curve"/>
      <point x="580" y="31" type="line"/>
      <point x="535" y="5"/>
      <point x="484" y="-10"/>
      <point x="430" y="-10" type="curve" smooth="yes"/>
      <point x="256" y="-10"/>
      <point x="150" y="141"/>
      <point x="150" y="350" type="curve" smooth="yes"/>
      <point x="150" y="559"/>
      <point x="256" y="710"/>
      <point x="430" y="710" type="curve" smooth="yes"/>
      <point x="484" y="710"/>
      <point x="535" y="695"/>
      <point x="580" y="669" type="curve"/>
      <point x="580" y="654" type="line"/>
      <point x="539" y="684"/>
      <point x="487" y="700"/>
      <point x="430" y="700" type="curve" smooth="yes"/>
      <point x="260" y="700"/>
      <point x="160" y="555"/>
    </contour>
  </outline>
</glyph>
<glyph name="ruble" format="2">
  <advance width="748.0"/>
  <unicode hex="20BD"/>
  <outline>
    <contour>
      <point x="150.0" y="700" type="line"/>
      <point x="160.0" y="700.0" type="line"/>
      <point x="160.0" y="0.0" type="line"/>
      <point x="150.0" y="0" type="line"/>
    </contour>
    <contour>
      <point x="156.0" y="690.0" type="line"/>
      <point x="156.0" y="700" type="line"/>
      <point x="309.0" y="700" type="line" smooth="yes"/>
      <point x="444.0" y="700.0"/>
      <point x="552.0" y="644.0"/>
      <point x="552.0" y="505" type="curve" smooth="yes"/>
      <point x="552.0" y="366.0"/>
      <point x="444.0" y="310.0"/>
      <point x="309.0" y="310" type="curve" smooth="yes"/>
      <point x="156.0" y="310" type="line"/>
      <point x="156.0" y="320.0" type="line"/>
      <point x="309.0" y="320.0" type="line" smooth="yes"/>
      <point x="439.0" y="320.0"/>
      <point x="541.0" y="374.0"/>
      <point x="541.0" y="505.0" type="curve" smooth="yes"/>
      <point x="541.0" y="636.0"/>
      <point x="439.0" y="690.0"/>
      <point x="309.0" y="690.0" type="curve" smooth="yes"/>
    </contour>
    <component base="hyphen" xOffset="215.0" yOffset="-95"/>
    <component base="hyphen" xOffset="25.0" yOffset="45"/>
    <component base="hyphen" xOffset="25.0" yOffset="-95"/>
  </outline>
</glyph>
<glyph name="uni2157" format="2">
  <advance width="831"/>
  <unicode hex="2157"/>
  <outline>
    <contour>
      <point x="708" y="700" type="line"/>
      <point x="720" y="700" type="line"/>
      <point x="147" y="0" type="line"/>
      <point x="135" y="0" type="line"/>
    </contour>
    <contour>
      <point x="145" y="497" type="curve"/>
      <point x="145" y="502" type="line"/>
      <point x="199" y="502"/>
      <point x="270" y="538"/>
      <point x="270" y="600" type="curve" smooth="yes"/>
      <point x="270" y="650"/>
      <point x="233" y="700"/>
      <point x="166" y="700" type="curve" smooth="yes"/>
      <point x="101" y="700"/>
      <point x="59" y="657"/>
      <point x="59" y="596" type="curve"/>
      <point x="53" y="596" type="line"/>
      <point x="53" y="661"/>
      <point x="97" y="706"/>
      <point x="166" y="706" type="curve" smooth="yes"/>
      <point x="238" y="706"/>
      <point x="276" y="653"/>
      <point x="276" y="600" type="curve" smooth="yes"/>
      <point x="276" y="535"/>
      <point x="208" y="497"/>
    </contour>
    <contour>
      <point x="163" y="274" type="curve" smooth="yes"/>
      <point x="82" y="274"/>
      <point x="35" y="326"/>
      <point x="35" y="391" type="curve"/>
      <point x="41" y="391" type="line"/>
      <point x="41" y="327"/>
      <point x="85" y="280"/>
      <point x="163" y="280" type="curve" smooth="yes"/>
      <point x="235" y="280"/>
      <point x="282" y="324"/>
      <point x="282" y="385" type="curve" smooth="yes"/>
      <point x="282" y="460"/>
      <point x="199" y="496"/>
      <point x="145" y="496" type="curve"/>
      <point x="145" y="501" type="line"/>
      <point x="208" y="501"/>
      <point x="288" y="462"/>
      <point x="288" y="385" type="curve" smooth="yes"/>
      <point x="288" y="320"/>
      <point x="238" y="274"/>
    </contour>
    <contour>
      <point x="770" y="136" type="curve" smooth="yes"/>
      <point x="770" y="41"/>
      <point x="710" y="-8"/>
      <point x="635" y="-8" type="curve" smooth="yes"/>
      <point x="570" y="-8"/>
      <point x="532" y="26"/>
      <point x="510" y="80" type="curve"/>
      <point x="515" y="83" type="line"/>
      <point x="537" y="30"/>
      <point x="572" y="-2"/>
      <point x="635" y="-2" type="curve" smooth="yes"/>
      <point x="707" y="-2"/>
      <point x="764" y="45"/>
      <point x="764" y="136" type="curve" smooth="yes"/>
      <point x="764" y="209"/>
      <point x="714" y="260"/>
      <point x="651" y="260" type="curve" smooth="yes"/>
      <point x="599" y="260"/>
      <point x="559" y="236"/>
      <point x="528" y="194" type="curve"/>
      <point x="538" y="213" type="line"/>
      <point x="556" y="240"/>
      <point x="598" y="266"/>
      <point x="651" y="266" type="curve" smooth="yes"/>
      <point x="717" y="266"/>
      <point x="770" y="213"/>
    </contour>
    <contour>
      <point x="587" y="412" type="line"/>
      <point x="538" y="213" type="line"/>
      <point x="528" y="194" type="line"/>
      <point x="583" y="418" type="line"/>
      <point x="781" y="418" type="line"/>
      <point x="781" y="412" type="line"/>
    </contour>
  </outline>
</glyph>
<glyph name="fiveeighths" format="2">
  <advance width="882"/>
  <unicode hex="215D"/>
  <outline>
    <contour>
      <point x="743" y="700" type="line"/>
      <point x="755" y="700" type="line"/>
      <point x="182" y="0" type="line"/>
      <point x="170" y="0" type="line"/>
    </contour>
    <contour>
      <point x="295" y="416" type="curve" smooth="yes"/>
      <point x="295" y="321"/>
      <point x="235" y="272"/>
      <point x="160" y="272" type="curve" smooth="yes"/>
      <point x="95" y="272"/>
      <point x="57" y="306"/>
      <point x="35" y="360" type="curve"/>
      <point x="40" y="363" type="line"/>
      <point x="62" y="310"/>
      <point x="97" y="278"/>
      <point x="160" y="278" type="curve" smooth="yes"/>
      <point x="232" y="278"/>
      <point x="289" y="325"/>
      <point x="289" y="416" type="curve" smooth="yes"/>
      <point x="289" y="489"/>
      <point x="239" y="540"/>
      <point x="176" y="540" type="curve" smooth="yes"/>
      <point x="124" y="540"/>
      <point x="84" y="516"/>
      <point x="53" y="474" type="curve"/>
      <point x="63" y="493" type="line"/>
      <point x="81" y="520"/>
      <point x="123" y="546"/>
      <point x="176" y="546" type="curve" smooth="yes"/>
      <point x="242" y="546"/>
      <point x="295" y="493"/>
    </contour>
    <contour>
      <point x="112" y="692" type="line"/>
      <point x="63" y="493" type="line"/>
      <point x="53" y="474" type="line"/>
      <point x="108" y="698" type="line"/>
      <point x="306" y="698" type="line"/>
      <point x="306" y="692" type="line"/>
    </contour>
    <contour>
      <point x="607" y="325" type="curve" smooth="yes"/>
      <point x="607" y="378"/>
      <point x="651" y="426"/>
      <point x="711" y="426" type="curve" smooth="yes"/>
      <point x="771" y="426"/>
      <point x="815" y="378"/>
      <point x="815" y="325" type="curve" smooth="yes"/>
      <point x="815" y="266"/>
      <point x="762" y="221"/>
      <point x="711" y="221" type="curve" smooth="yes"/>
      <point x="660" y="221"/>
      <point x="607" y="266"/>
    </contour>
    <contour>
      <point x="613" y="325" type="curve" smooth="yes"/>
      <point x="613" y="267"/>
      <point x="669" y="225"/>
      <point x="711" y="225" type="curve" smooth="yes"/>
      <point x="753" y="225"/>
      <point x="809" y="267"/>
      <point x="809" y="325" type="curve" smooth="yes"/>
      <point x="809" y="377"/>
      <point x="768" y="420"/>
      <point x="711" y="420" type="curve" smooth="yes"/>
      <point x="654" y="420"/>
      <point x="613" y="377"/>
    </contour>
    <contour>
      <point x="595" y="111" type="curve" smooth="yes"/>
      <point x="595" y="176"/>
      <point x="651" y="223"/>
      <point x="711" y="223" type="curve" smooth="yes"/>
      <point x="771" y="223"/>
      <point x="827" y="176"/>
      <point x="827" y="111" type="curve" smooth="yes"/>
      <point x="827" y="46"/>
      <point x="786" y="-6"/>
      <point x="711" y="-6" type="curve" smooth="yes"/>
      <point x="636" y="-6"/>
      <point x="595" y="46"/>
    </contour>
    <contour>
      <point x="601" y="111" type="curve" smooth="yes"/>
      <point x="601" y="47"/>
      <point x="642" y="0"/>
      <point x="711" y="0" type="curve" smooth="yes"/>
      <point x="780" y="0"/>
      <point x="821" y="47"/>
      <point x="821" y="111" type="curve" smooth="yes"/>
      <point x="821" y="175"/>
      <point x="765" y="219"/>
      <point x="711" y="219" type="curve" smooth="yes"/>
      <point x="657" y="219"/>
      <point x="601" y="175"/>
    </contour>
  </outline>
</glyph>
<glyph name="emptyset" format="2">
  <advance width="600"/>
  <unicode hex="2205"/>
  <outline>
    <contour>
      <point x="300" y="28" type="curve" smooth="yes"/>
      <point x="182" y="28"/>
      <point x="86" y="124"/>
      <point x="86" y="242" type="curve" smooth="yes"/>
      <point x="86" y="360"/>
      <point x="182" y="456"/>
      <point x="300" y="456" type="curve" smooth="yes"/>
      <point x="418" y="456"/>
      <point x="514" y="360"/>
      <point x="514" y="242" type="curve" smooth="yes"/>
      <point x="514" y="124"/>
      <point x="418" y="28"/>
    </contour>
    <contour>
      <point x="300" y="38" type="curve" smooth="yes"/>
      <point x="412" y="38"/>
      <point x="504" y="130"/>
      <point x="504" y="242" type="curve" smooth="yes"/>
      <point x="504" y="354"/>
      <point x="412" y="446"/>
      <point x="300" y="446" type="curve" smooth="yes"/>
      <point x="188" y="446"/>
      <point x="96" y="354"/>
      <point x="96" y="242" type="curve" smooth="yes"/>
      <point x="96" y="130"/>
      <point x="188" y="38"/>
    </contour>
    <contour>
      <point x="109" y="44" type="line"/>
      <point x="102" y="50" type="line"/>
      <point x="492" y="438" type="line"/>
      <point x="498" y="432" type="line"/>
    </contour>
  </outline>
</glyph>
<glyph name="radical" format="2">
  <advance width="600"/>
  <unicode hex="221A"/>
  <outline>
    <contour>
      <point x="232" y="-113" type="line"/>
      <point x="348" y="694" type="line"/>
      <point x="340" y="691" type="line"/>
      <point x="502" y="691" type="line"/>
      <point x="502" y="700" type="line"/>
      <point x="338" y="700" type="line"/>
      <point x="225" y="-90" type="line"/>
      <point x="234" y="-88" type="line"/>
      <point x="138" y="234" type="line"/>
      <point x="42" y="213" type="line"/>
      <point x="45" y="205" type="line"/>
      <point x="138" y="226" type="line"/>
      <point x="130" y="230" type="line"/>
    </contour>
  </outline>
</glyph>
<glyph name="approxequal" format="2">
  <advance width="600"/>
  <unicode hex="2248"/>
  <outline>
    <contour>
      <point x="414" y="322" type="curve" smooth="yes"/>
      <point x="478" y="322"/>
      <point x="515" y="386"/>
      <point x="496" y="468" type="curve"/>
      <point x="486" y="471" type="line"/>
      <point x="504" y="387"/>
      <point x="476" y="332"/>
      <point x="414" y="332" type="curve" smooth="yes"/>
      <point x="374" y="332"/>
      <point x="348" y="348"/>
      <point x="302" y="400" type="curve" smooth="yes"/>
      <point x="257" y="451"/>
      <point x="212" y="477"/>
      <point x="169" y="477" type="curve" smooth="yes"/>
      <point x="101" y="477"/>
      <point x="56" y="406"/>
      <point x="78" y="331" type="curve"/>
      <point x="88" y="328" type="line"/>
      <point x="68" y="406"/>
      <point x="103" y="467"/>
      <point x="169" y="467" type="curve" smooth="yes"/>
      <point x="212" y="467"/>
      <point x="244" y="449"/>
      <point x="294" y="393" type="curve" smooth="yes"/>
      <point x="339" y="343"/>
      <point x="376" y="322"/>
    </contour>
    <contour>
      <point x="414" y="122" type="curve" smooth="yes"/>
      <point x="478" y="122"/>
      <point x="515" y="186"/>
      <point x="496" y="268" type="curve"/>
      <point x="486" y="271" type="line"/>
      <point x="504" y="187"/>
      <point x="476" y="132"/>
      <point x="414" y="132" type="curve" smooth="yes"/>
      <point x="374" y="132"/>
      <point x="348" y="148"/>
      <point x="302" y="200" type="curve" smooth="yes"/>
      <point x="257" y="251"/>
      <point x="212" y="277"/>
      <point x="169" y="277" type="curve" smooth="yes"/>
      <point x="101" y="277"/>
      <point x="56" y="206"/>
      <point x="78" y="131" type="curve"/>
      <point x="88" y="128" type="line"/>
      <point x="68" y="206"/>
      <point x="103" y="267"/>
      <point x="169" y="267" type="curve" smooth="yes"/>
      <point x="212" y="267"/>
      <point x="244" y="249"/>
      <point x="294" y="193" type="curve" smooth="yes"/>
      <point x="339" y="143"/>
      <point x="376" y="122"/>
    </contour>
  </outline>
</glyph>
<glyph name="lessequal" format="2">
  <advance width="600"/>
  <unicode hex="2264"/>
  <outline>
    <contour>
      <point x="65" y="0" type="line"/>
      <point x="575" y="0" type="line"/>
      <point x="575" y="10" type="line"/>
      <point x="65" y="10" type="line"/>
    </contour>
    <contour>
      <point x="575" y="75" type="line"/>
      <point x="575" y="85" type="line"/>
      <point x="82" y="287" type="line"/>
      <point x="575" y="490" type="line"/>
      <point x="575" y="500" type="line"/>
      <point x="65" y="290" type="line"/>
      <point x="65" y="284" type="line"/>
    </contour>
  </outline>
</glyph>
<glyph name="lozenge" format="2">
  <advance width="600"/>
  <unicode hex="25CA"/>
  <outline>
    <contour>
      <point x="306" y="15" type="line"/>
      <point x="500" y="356" type="line"/>
      <point x="306" y="696" type="line"/>
      <point x="100" y="356" type="line"/>
    </contour>
    <contour>
      <point x="305" y="40" type="line"/>
      <point x="114" y="356" type="line"/>
      <point x="305" y="671" type="line"/>
      <point x="486" y="356" type="line"/>
    </contour>
  </outline>
</glyph>
<glyph name="uniFF11" format="2">
  <advance width="550"/>
  <unicode hex="FF11"/>
  <outline>
    <contour>
      <point x="165" y="654" type="line"/>
      <point x="165" y="665" type="line"/>
      <point x="345" y="705" type="line"/>
      <point x="345" y="0" type="line"/>
      <point x="335" y="0" type="line"/>
      <point x="335" y="691" type="line"/>
    </contour>
  </outline>
</glyph>
<glyph name="uniFF18" format="2">
  <advance width="550"/>
  <unicode hex="FF18"/>
  <outline>
    <contour>
      <point x="102" y="541" type="curve" smooth="yes"/>
      <point x="102" y="630"/>
      <point x="175" y="710"/>
      <point x="275" y="710" type="curve" smooth="yes"/>
      <point x="375" y="710"/>
      <point x="448" y="630"/>
      <point x="448" y="541" type="curve" smooth="yes"/>
      <point x="448" y="442"/>
      <point x="360" y="368"/>
      <point x="275" y="368" type="curve" smooth="yes"/>
      <point x="190" y="368"/>
      <point x="102" y="442"/>
    </contour>
    <contour>
      <point x="112" y="541" type="curve" smooth="yes"/>
      <point x="112" y="445"/>
      <point x="205" y="375"/>
      <point x="275" y="375" type="curve" smooth="yes"/>
      <point x="345" y="375"/>
      <point x="438" y="445"/>
      <point x="438" y="541" type="curve" smooth="yes"/>
      <point x="438" y="627"/>
      <point x="370" y="700"/>
      <point x="275" y="700" type="curve" smooth="yes"/>
      <point x="180" y="700"/>
      <point x="112" y="627"/>
    </contour>
    <contour>
      <point x="82" y="185" type="curve" smooth="yes"/>
      <point x="82" y="294"/>
      <point x="175" y="372"/>
      <point x="275" y="372" type="curve" smooth="yes"/>
      <point x="375" y="372"/>
      <point x="468" y="294"/>
      <point x="468" y="185" type="curve" smooth="yes"/>
      <point x="468" y="76"/>
      <point x="400" y="-10"/>
      <point x="275" y="-10" type="curve" smooth="yes"/>
      <point x="150" y="-10"/>
      <point x="82" y="76"/>
    </contour>
    <contour>
      <point x="92" y="185" type="curve" smooth="yes"/>
      <point x="92" y="79"/>
      <point x="160" y="0"/>
      <point x="275" y="0" type="curve" smooth="yes"/>
      <point x="390" y="0"/>
      <point x="458" y="79"/>
      <point x="458" y="185" type="curve" smooth="yes"/>
      <point x="458" y="291"/>
      <point x="365" y="365"/>
      <point x="275" y="365" type="curve" smooth="yes"/>
      <point x="185" y="365"/>
      <point x="92" y="291"/>
    </contour>
  </outline>
</glyph>
